<svg xmlns="http://www.w3.org/2000/svg" xmlns:xlink="http://www.w3.org/1999/xlink" width="600" height="400" viewBox="0 0 2400 1600">
<defs>
  <clipPath id="clip370">
    <rect x="0" y="0" width="2400" height="1600"></rect>
  </clipPath>
</defs>
<path clip-path="url(#clip370)" d="M0 1600 L2400 1600 L2400 0 L0 0  Z" fill="#ffffff" fill-rule="evenodd" fill-opacity="1"></path>
<defs>
  <clipPath id="clip371">
    <rect x="480" y="0" width="1681" height="1600"></rect>
  </clipPath>
</defs>
<path clip-path="url(#clip370)" d="M257.204 1423.18 L2352.76 1423.18 L2352.76 123.472 L257.204 123.472  Z" fill="#ffffff" fill-rule="evenodd" fill-opacity="1"></path>
<defs>
  <clipPath id="clip372">
    <rect x="257" y="123" width="2097" height="1301"></rect>
  </clipPath>
</defs>
<polyline clip-path="url(#clip372)" style="stroke:#000000; stroke-linecap:round; stroke-linejoin:round; stroke-width:2; stroke-opacity:0.1; fill:none" points="316.512,1423.18 316.512,123.472 "></polyline>
<polyline clip-path="url(#clip372)" style="stroke:#000000; stroke-linecap:round; stroke-linejoin:round; stroke-width:2; stroke-opacity:0.1; fill:none" points="646.001,1423.18 646.001,123.472 "></polyline>
<polyline clip-path="url(#clip372)" style="stroke:#000000; stroke-linecap:round; stroke-linejoin:round; stroke-width:2; stroke-opacity:0.1; fill:none" points="975.491,1423.18 975.491,123.472 "></polyline>
<polyline clip-path="url(#clip372)" style="stroke:#000000; stroke-linecap:round; stroke-linejoin:round; stroke-width:2; stroke-opacity:0.1; fill:none" points="1304.98,1423.18 1304.98,123.472 "></polyline>
<polyline clip-path="url(#clip372)" style="stroke:#000000; stroke-linecap:round; stroke-linejoin:round; stroke-width:2; stroke-opacity:0.1; fill:none" points="1634.47,1423.18 1634.47,123.472 "></polyline>
<polyline clip-path="url(#clip372)" style="stroke:#000000; stroke-linecap:round; stroke-linejoin:round; stroke-width:2; stroke-opacity:0.1; fill:none" points="1963.96,1423.18 1963.96,123.472 "></polyline>
<polyline clip-path="url(#clip372)" style="stroke:#000000; stroke-linecap:round; stroke-linejoin:round; stroke-width:2; stroke-opacity:0.1; fill:none" points="2293.45,1423.18 2293.45,123.472 "></polyline>
<polyline clip-path="url(#clip372)" style="stroke:#000000; stroke-linecap:round; stroke-linejoin:round; stroke-width:2; stroke-opacity:0.1; fill:none" points="257.204,1395.02 2352.76,1395.02 "></polyline>
<polyline clip-path="url(#clip372)" style="stroke:#000000; stroke-linecap:round; stroke-linejoin:round; stroke-width:2; stroke-opacity:0.1; fill:none" points="257.204,1082.35 2352.76,1082.35 "></polyline>
<polyline clip-path="url(#clip372)" style="stroke:#000000; stroke-linecap:round; stroke-linejoin:round; stroke-width:2; stroke-opacity:0.1; fill:none" points="257.204,769.671 2352.76,769.671 "></polyline>
<polyline clip-path="url(#clip372)" style="stroke:#000000; stroke-linecap:round; stroke-linejoin:round; stroke-width:2; stroke-opacity:0.1; fill:none" points="257.204,456.995 2352.76,456.995 "></polyline>
<polyline clip-path="url(#clip372)" style="stroke:#000000; stroke-linecap:round; stroke-linejoin:round; stroke-width:2; stroke-opacity:0.1; fill:none" points="257.204,144.318 2352.76,144.318 "></polyline>
<polyline clip-path="url(#clip370)" style="stroke:#000000; stroke-linecap:round; stroke-linejoin:round; stroke-width:4; stroke-opacity:1; fill:none" points="257.204,1423.18 2352.76,1423.18 "></polyline>
<polyline clip-path="url(#clip370)" style="stroke:#000000; stroke-linecap:round; stroke-linejoin:round; stroke-width:4; stroke-opacity:1; fill:none" points="316.512,1423.18 316.512,1404.28 "></polyline>
<polyline clip-path="url(#clip370)" style="stroke:#000000; stroke-linecap:round; stroke-linejoin:round; stroke-width:4; stroke-opacity:1; fill:none" points="646.001,1423.18 646.001,1404.28 "></polyline>
<polyline clip-path="url(#clip370)" style="stroke:#000000; stroke-linecap:round; stroke-linejoin:round; stroke-width:4; stroke-opacity:1; fill:none" points="975.491,1423.18 975.491,1404.28 "></polyline>
<polyline clip-path="url(#clip370)" style="stroke:#000000; stroke-linecap:round; stroke-linejoin:round; stroke-width:4; stroke-opacity:1; fill:none" points="1304.98,1423.18 1304.98,1404.28 "></polyline>
<polyline clip-path="url(#clip370)" style="stroke:#000000; stroke-linecap:round; stroke-linejoin:round; stroke-width:4; stroke-opacity:1; fill:none" points="1634.47,1423.18 1634.47,1404.28 "></polyline>
<polyline clip-path="url(#clip370)" style="stroke:#000000; stroke-linecap:round; stroke-linejoin:round; stroke-width:4; stroke-opacity:1; fill:none" points="1963.96,1423.18 1963.96,1404.28 "></polyline>
<polyline clip-path="url(#clip370)" style="stroke:#000000; stroke-linecap:round; stroke-linejoin:round; stroke-width:4; stroke-opacity:1; fill:none" points="2293.45,1423.18 2293.45,1404.28 "></polyline>
<path clip-path="url(#clip370)" d="M285.98 1468.75 L315.656 1468.75 L315.656 1472.69 L285.98 1472.69 L285.98 1468.75 Z" fill="#000000" fill-rule="nonzero" fill-opacity="1"></path><path clip-path="url(#clip370)" d="M339.915 1466.95 Q343.271 1467.66 345.146 1469.93 Q347.044 1472.2 347.044 1475.53 Q347.044 1480.65 343.526 1483.45 Q340.007 1486.25 333.526 1486.25 Q331.35 1486.25 329.035 1485.81 Q326.744 1485.39 324.29 1484.54 L324.29 1480.02 Q326.234 1481.16 328.549 1481.74 Q330.864 1482.32 333.387 1482.32 Q337.785 1482.32 340.077 1480.58 Q342.392 1478.84 342.392 1475.53 Q342.392 1472.48 340.239 1470.77 Q338.109 1469.03 334.29 1469.03 L330.262 1469.03 L330.262 1465.19 L334.475 1465.19 Q337.924 1465.19 339.753 1463.82 Q341.581 1462.43 341.581 1459.84 Q341.581 1457.18 339.683 1455.77 Q337.808 1454.33 334.29 1454.33 Q332.368 1454.33 330.169 1454.75 Q327.97 1455.16 325.331 1456.04 L325.331 1451.88 Q327.994 1451.14 330.308 1450.77 Q332.646 1450.39 334.706 1450.39 Q340.03 1450.39 343.132 1452.83 Q346.234 1455.23 346.234 1459.35 Q346.234 1462.22 344.591 1464.21 Q342.947 1466.18 339.915 1466.95 Z" fill="#000000" fill-rule="nonzero" fill-opacity="1"></path><path clip-path="url(#clip370)" d="M615.944 1468.75 L645.619 1468.75 L645.619 1472.69 L615.944 1472.69 L615.944 1468.75 Z" fill="#000000" fill-rule="nonzero" fill-opacity="1"></path><path clip-path="url(#clip370)" d="M659.74 1481.64 L676.059 1481.64 L676.059 1485.58 L654.115 1485.58 L654.115 1481.64 Q656.777 1478.89 661.36 1474.26 Q665.967 1469.61 667.147 1468.27 Q669.392 1465.74 670.272 1464.01 Q671.175 1462.25 671.175 1460.56 Q671.175 1457.8 669.23 1456.07 Q667.309 1454.33 664.207 1454.33 Q662.008 1454.33 659.555 1455.09 Q657.124 1455.86 654.346 1457.41 L654.346 1452.69 Q657.17 1451.55 659.624 1450.97 Q662.078 1450.39 664.115 1450.39 Q669.485 1450.39 672.679 1453.08 Q675.874 1455.77 675.874 1460.26 Q675.874 1462.39 675.064 1464.31 Q674.277 1466.2 672.17 1468.8 Q671.592 1469.47 668.49 1472.69 Q665.388 1475.88 659.74 1481.64 Z" fill="#000000" fill-rule="nonzero" fill-opacity="1"></path><path clip-path="url(#clip370)" d="M945.248 1468.75 L974.924 1468.75 L974.924 1472.69 L945.248 1472.69 L945.248 1468.75 Z" fill="#000000" fill-rule="nonzero" fill-opacity="1"></path><path clip-path="url(#clip370)" d="M985.826 1481.64 L993.465 1481.64 L993.465 1455.28 L985.155 1456.95 L985.155 1452.69 L993.419 1451.02 L998.095 1451.02 L998.095 1481.64 L1005.73 1481.64 L1005.73 1485.58 L985.826 1485.58 L985.826 1481.64 Z" fill="#000000" fill-rule="nonzero" fill-opacity="1"></path><path clip-path="url(#clip370)" d="M1304.98 1454.1 Q1301.37 1454.1 1299.54 1457.66 Q1297.73 1461.2 1297.73 1468.33 Q1297.73 1475.44 1299.54 1479.01 Q1301.37 1482.55 1304.98 1482.55 Q1308.61 1482.55 1310.42 1479.01 Q1312.25 1475.44 1312.25 1468.33 Q1312.25 1461.2 1310.42 1457.66 Q1308.61 1454.1 1304.98 1454.1 M1304.98 1450.39 Q1310.79 1450.39 1313.85 1455 Q1316.92 1459.58 1316.92 1468.33 Q1316.92 1477.06 1313.85 1481.67 Q1310.79 1486.25 1304.98 1486.25 Q1299.17 1486.25 1296.09 1481.67 Q1293.04 1477.06 1293.04 1468.33 Q1293.04 1459.58 1296.09 1455 Q1299.17 1450.39 1304.98 1450.39 Z" fill="#000000" fill-rule="nonzero" fill-opacity="1"></path><path clip-path="url(#clip370)" d="M1624.85 1481.64 L1632.49 1481.64 L1632.49 1455.28 L1624.18 1456.95 L1624.18 1452.69 L1632.44 1451.02 L1637.12 1451.02 L1637.12 1481.64 L1644.76 1481.64 L1644.76 1485.58 L1624.85 1485.58 L1624.85 1481.64 Z" fill="#000000" fill-rule="nonzero" fill-opacity="1"></path><path clip-path="url(#clip370)" d="M1958.61 1481.64 L1974.93 1481.64 L1974.93 1485.58 L1952.99 1485.58 L1952.99 1481.64 Q1955.65 1478.89 1960.23 1474.26 Q1964.84 1469.61 1966.02 1468.27 Q1968.26 1465.74 1969.14 1464.01 Q1970.05 1462.25 1970.05 1460.56 Q1970.05 1457.8 1968.1 1456.07 Q1966.18 1454.33 1963.08 1454.33 Q1960.88 1454.33 1958.43 1455.09 Q1956 1455.86 1953.22 1457.41 L1953.22 1452.69 Q1956.04 1451.55 1958.5 1450.97 Q1960.95 1450.39 1962.99 1450.39 Q1968.36 1450.39 1971.55 1453.08 Q1974.75 1455.77 1974.75 1460.26 Q1974.75 1462.39 1973.94 1464.31 Q1973.15 1466.2 1971.04 1468.8 Q1970.46 1469.47 1967.36 1472.69 Q1964.26 1475.88 1958.61 1481.64 Z" fill="#000000" fill-rule="nonzero" fill-opacity="1"></path><path clip-path="url(#clip370)" d="M2297.7 1466.95 Q2301.05 1467.66 2302.93 1469.93 Q2304.83 1472.2 2304.83 1475.53 Q2304.83 1480.65 2301.31 1483.45 Q2297.79 1486.25 2291.31 1486.25 Q2289.13 1486.25 2286.82 1485.81 Q2284.52 1485.39 2282.07 1484.54 L2282.07 1480.02 Q2284.02 1481.16 2286.33 1481.74 Q2288.64 1482.32 2291.17 1482.32 Q2295.57 1482.32 2297.86 1480.58 Q2300.17 1478.84 2300.17 1475.53 Q2300.17 1472.48 2298.02 1470.77 Q2295.89 1469.03 2292.07 1469.03 L2288.04 1469.03 L2288.04 1465.19 L2292.26 1465.19 Q2295.7 1465.19 2297.53 1463.82 Q2299.36 1462.43 2299.36 1459.84 Q2299.36 1457.18 2297.46 1455.77 Q2295.59 1454.33 2292.07 1454.33 Q2290.15 1454.33 2287.95 1454.75 Q2285.75 1455.16 2283.11 1456.04 L2283.11 1451.88 Q2285.77 1451.14 2288.09 1450.77 Q2290.43 1450.39 2292.49 1450.39 Q2297.81 1450.39 2300.91 1452.83 Q2304.01 1455.23 2304.01 1459.35 Q2304.01 1462.22 2302.37 1464.21 Q2300.73 1466.18 2297.7 1466.95 Z" fill="#000000" fill-rule="nonzero" fill-opacity="1"></path><path clip-path="url(#clip370)" d="M1295.27 1568.97 Q1282.06 1568.97 1282.06 1550.06 Q1282.06 1542.58 1287 1532.4 L1293.3 1532.4 Q1288.75 1542.58 1288.75 1550.22 Q1288.75 1564 1295.81 1564 Q1302.27 1564 1302.27 1546.88 L1307.69 1546.88 Q1307.69 1564 1314.15 1564 Q1321.21 1564 1321.21 1550.22 Q1321.21 1542.58 1316.66 1532.4 L1322.96 1532.4 Q1327.9 1542.58 1327.9 1550.06 Q1327.9 1568.97 1314.69 1568.97 Q1306.03 1568.97 1304.98 1559.45 Q1303.67 1568.97 1295.27 1568.97 Z" fill="#000000" fill-rule="nonzero" fill-opacity="1"></path><polyline clip-path="url(#clip370)" style="stroke:#000000; stroke-linecap:round; stroke-linejoin:round; stroke-width:4; stroke-opacity:1; fill:none" points="257.204,1423.18 257.204,123.472 "></polyline>
<polyline clip-path="url(#clip370)" style="stroke:#000000; stroke-linecap:round; stroke-linejoin:round; stroke-width:4; stroke-opacity:1; fill:none" points="257.204,1395.02 276.102,1395.02 "></polyline>
<polyline clip-path="url(#clip370)" style="stroke:#000000; stroke-linecap:round; stroke-linejoin:round; stroke-width:4; stroke-opacity:1; fill:none" points="257.204,1082.35 276.102,1082.35 "></polyline>
<polyline clip-path="url(#clip370)" style="stroke:#000000; stroke-linecap:round; stroke-linejoin:round; stroke-width:4; stroke-opacity:1; fill:none" points="257.204,769.671 276.102,769.671 "></polyline>
<polyline clip-path="url(#clip370)" style="stroke:#000000; stroke-linecap:round; stroke-linejoin:round; stroke-width:4; stroke-opacity:1; fill:none" points="257.204,456.995 276.102,456.995 "></polyline>
<polyline clip-path="url(#clip370)" style="stroke:#000000; stroke-linecap:round; stroke-linejoin:round; stroke-width:4; stroke-opacity:1; fill:none" points="257.204,144.318 276.102,144.318 "></polyline>
<path clip-path="url(#clip370)" d="M114.26 1395.48 L143.936 1395.48 L143.936 1399.41 L114.26 1399.41 L114.26 1395.48 Z" fill="#000000" fill-rule="nonzero" fill-opacity="1"></path><path clip-path="url(#clip370)" d="M154.839 1408.37 L162.477 1408.37 L162.477 1382 L154.167 1383.67 L154.167 1379.41 L162.431 1377.74 L167.107 1377.74 L167.107 1408.37 L174.746 1408.37 L174.746 1412.3 L154.839 1412.3 L154.839 1408.37 Z" fill="#000000" fill-rule="nonzero" fill-opacity="1"></path><path clip-path="url(#clip370)" d="M184.19 1406.42 L189.075 1406.42 L189.075 1412.3 L184.19 1412.3 L184.19 1406.42 Z" fill="#000000" fill-rule="nonzero" fill-opacity="1"></path><path clip-path="url(#clip370)" d="M209.26 1380.82 Q205.649 1380.82 203.82 1384.39 Q202.014 1387.93 202.014 1395.06 Q202.014 1402.17 203.82 1405.73 Q205.649 1409.27 209.26 1409.27 Q212.894 1409.27 214.699 1405.73 Q216.528 1402.17 216.528 1395.06 Q216.528 1387.93 214.699 1384.39 Q212.894 1380.82 209.26 1380.82 M209.26 1377.12 Q215.07 1377.12 218.125 1381.73 Q221.204 1386.31 221.204 1395.06 Q221.204 1403.79 218.125 1408.39 Q215.07 1412.98 209.26 1412.98 Q203.449 1412.98 200.371 1408.39 Q197.315 1403.79 197.315 1395.06 Q197.315 1386.31 200.371 1381.73 Q203.449 1377.12 209.26 1377.12 Z" fill="#000000" fill-rule="nonzero" fill-opacity="1"></path><path clip-path="url(#clip370)" d="M115.256 1082.8 L144.931 1082.8 L144.931 1086.73 L115.256 1086.73 L115.256 1082.8 Z" fill="#000000" fill-rule="nonzero" fill-opacity="1"></path><path clip-path="url(#clip370)" d="M165.024 1068.15 Q161.413 1068.15 159.584 1071.71 Q157.778 1075.25 157.778 1082.38 Q157.778 1089.49 159.584 1093.05 Q161.413 1096.6 165.024 1096.6 Q168.658 1096.6 170.464 1093.05 Q172.292 1089.49 172.292 1082.38 Q172.292 1075.25 170.464 1071.71 Q168.658 1068.15 165.024 1068.15 M165.024 1064.44 Q170.834 1064.44 173.889 1069.05 Q176.968 1073.63 176.968 1082.38 Q176.968 1091.11 173.889 1095.72 Q170.834 1100.3 165.024 1100.3 Q159.214 1100.3 156.135 1095.72 Q153.079 1091.11 153.079 1082.38 Q153.079 1073.63 156.135 1069.05 Q159.214 1064.44 165.024 1064.44 Z" fill="#000000" fill-rule="nonzero" fill-opacity="1"></path><path clip-path="url(#clip370)" d="M185.186 1093.75 L190.07 1093.75 L190.07 1099.63 L185.186 1099.63 L185.186 1093.75 Z" fill="#000000" fill-rule="nonzero" fill-opacity="1"></path><path clip-path="url(#clip370)" d="M200.301 1065.07 L218.658 1065.07 L218.658 1069 L204.584 1069 L204.584 1077.47 Q205.602 1077.13 206.621 1076.97 Q207.639 1076.78 208.658 1076.78 Q214.445 1076.78 217.824 1079.95 Q221.204 1083.12 221.204 1088.54 Q221.204 1094.12 217.732 1097.22 Q214.26 1100.3 207.94 1100.3 Q205.764 1100.3 203.496 1099.93 Q201.25 1099.56 198.843 1098.82 L198.843 1094.12 Q200.926 1095.25 203.149 1095.81 Q205.371 1096.36 207.848 1096.36 Q211.852 1096.36 214.19 1094.26 Q216.528 1092.15 216.528 1088.54 Q216.528 1084.93 214.19 1082.82 Q211.852 1080.72 207.848 1080.72 Q205.973 1080.72 204.098 1081.13 Q202.246 1081.55 200.301 1082.43 L200.301 1065.07 Z" fill="#000000" fill-rule="nonzero" fill-opacity="1"></path><path clip-path="url(#clip370)" d="M164.028 755.47 Q160.417 755.47 158.589 759.035 Q156.783 762.576 156.783 769.706 Q156.783 776.812 158.589 780.377 Q160.417 783.919 164.028 783.919 Q167.663 783.919 169.468 780.377 Q171.297 776.812 171.297 769.706 Q171.297 762.576 169.468 759.035 Q167.663 755.47 164.028 755.47 M164.028 751.766 Q169.839 751.766 172.894 756.373 Q175.973 760.956 175.973 769.706 Q175.973 778.433 172.894 783.039 Q169.839 787.622 164.028 787.622 Q158.218 787.622 155.14 783.039 Q152.084 778.433 152.084 769.706 Q152.084 760.956 155.14 756.373 Q158.218 751.766 164.028 751.766 Z" fill="#000000" fill-rule="nonzero" fill-opacity="1"></path><path clip-path="url(#clip370)" d="M184.19 781.072 L189.075 781.072 L189.075 786.951 L184.19 786.951 L184.19 781.072 Z" fill="#000000" fill-rule="nonzero" fill-opacity="1"></path><path clip-path="url(#clip370)" d="M209.26 755.47 Q205.649 755.47 203.82 759.035 Q202.014 762.576 202.014 769.706 Q202.014 776.812 203.82 780.377 Q205.649 783.919 209.26 783.919 Q212.894 783.919 214.699 780.377 Q216.528 776.812 216.528 769.706 Q216.528 762.576 214.699 759.035 Q212.894 755.47 209.26 755.47 M209.26 751.766 Q215.07 751.766 218.125 756.373 Q221.204 760.956 221.204 769.706 Q221.204 778.433 218.125 783.039 Q215.07 787.622 209.26 787.622 Q203.449 787.622 200.371 783.039 Q197.315 778.433 197.315 769.706 Q197.315 760.956 200.371 756.373 Q203.449 751.766 209.26 751.766 Z" fill="#000000" fill-rule="nonzero" fill-opacity="1"></path><path clip-path="url(#clip370)" d="M165.024 442.793 Q161.413 442.793 159.584 446.358 Q157.778 449.9 157.778 457.029 Q157.778 464.136 159.584 467.701 Q161.413 471.242 165.024 471.242 Q168.658 471.242 170.464 467.701 Q172.292 464.136 172.292 457.029 Q172.292 449.9 170.464 446.358 Q168.658 442.793 165.024 442.793 M165.024 439.09 Q170.834 439.09 173.889 443.696 Q176.968 448.28 176.968 457.029 Q176.968 465.756 173.889 470.363 Q170.834 474.946 165.024 474.946 Q159.214 474.946 156.135 470.363 Q153.079 465.756 153.079 457.029 Q153.079 448.28 156.135 443.696 Q159.214 439.09 165.024 439.09 Z" fill="#000000" fill-rule="nonzero" fill-opacity="1"></path><path clip-path="url(#clip370)" d="M185.186 468.395 L190.07 468.395 L190.07 474.275 L185.186 474.275 L185.186 468.395 Z" fill="#000000" fill-rule="nonzero" fill-opacity="1"></path><path clip-path="url(#clip370)" d="M200.301 439.715 L218.658 439.715 L218.658 443.65 L204.584 443.65 L204.584 452.122 Q205.602 451.775 206.621 451.613 Q207.639 451.428 208.658 451.428 Q214.445 451.428 217.824 454.599 Q221.204 457.77 221.204 463.187 Q221.204 468.766 217.732 471.867 Q214.26 474.946 207.94 474.946 Q205.764 474.946 203.496 474.576 Q201.25 474.205 198.843 473.465 L198.843 468.766 Q200.926 469.9 203.149 470.455 Q205.371 471.011 207.848 471.011 Q211.852 471.011 214.19 468.904 Q216.528 466.798 216.528 463.187 Q216.528 459.576 214.19 457.469 Q211.852 455.363 207.848 455.363 Q205.973 455.363 204.098 455.779 Q202.246 456.196 200.301 457.076 L200.301 439.715 Z" fill="#000000" fill-rule="nonzero" fill-opacity="1"></path><path clip-path="url(#clip370)" d="M154.839 157.663 L162.477 157.663 L162.477 131.298 L154.167 132.964 L154.167 128.705 L162.431 127.038 L167.107 127.038 L167.107 157.663 L174.746 157.663 L174.746 161.598 L154.839 161.598 L154.839 157.663 Z" fill="#000000" fill-rule="nonzero" fill-opacity="1"></path><path clip-path="url(#clip370)" d="M184.19 155.719 L189.075 155.719 L189.075 161.598 L184.19 161.598 L184.19 155.719 Z" fill="#000000" fill-rule="nonzero" fill-opacity="1"></path><path clip-path="url(#clip370)" d="M209.26 130.117 Q205.649 130.117 203.82 133.682 Q202.014 137.223 202.014 144.353 Q202.014 151.46 203.82 155.024 Q205.649 158.566 209.26 158.566 Q212.894 158.566 214.699 155.024 Q216.528 151.46 216.528 144.353 Q216.528 137.223 214.699 133.682 Q212.894 130.117 209.26 130.117 M209.26 126.413 Q215.07 126.413 218.125 131.02 Q221.204 135.603 221.204 144.353 Q221.204 153.08 218.125 157.686 Q215.07 162.27 209.26 162.27 Q203.449 162.27 200.371 157.686 Q197.315 153.08 197.315 144.353 Q197.315 135.603 200.371 131.02 Q203.449 126.413 209.26 126.413 Z" fill="#000000" fill-rule="nonzero" fill-opacity="1"></path><path clip-path="url(#clip370)" d="M57.2247 811.536 L44.4614 811.536 L44.4614 822.04 L39.1779 822.04 L39.1779 805.17 L59.58 805.17 Q62.2218 808.894 63.5904 813.382 Q64.9272 817.87 64.9272 822.963 Q64.9272 834.103 58.4342 840.405 Q51.9093 846.675 40.2919 846.675 Q28.6427 846.675 22.1496 840.405 Q15.6248 834.103 15.6248 822.963 Q15.6248 818.316 16.7706 814.146 Q17.9164 809.945 20.1444 806.412 L26.9876 806.412 Q23.9639 809.977 22.4361 813.987 Q20.9083 817.997 20.9083 822.421 Q20.9083 831.143 25.7781 835.535 Q30.6479 839.895 40.2919 839.895 Q49.9041 839.895 54.7739 835.535 Q59.6436 831.143 59.6436 822.421 Q59.6436 819.016 59.0707 816.342 Q58.466 813.669 57.2247 811.536 Z" fill="#000000" fill-rule="nonzero" fill-opacity="1"></path><path clip-path="url(#clip370)" d="M14.5426 779.612 Q21.8632 783.877 29.0246 785.946 Q36.186 788.015 43.5384 788.015 Q50.8908 788.015 58.1159 785.946 Q65.3091 783.845 72.5979 779.612 L72.5979 784.705 Q65.1182 789.479 57.8931 791.866 Q50.668 794.221 43.5384 794.221 Q36.4406 794.221 29.2474 791.866 Q22.0542 789.511 14.5426 784.705 L14.5426 779.612 Z" fill="#000000" fill-rule="nonzero" fill-opacity="1"></path><path clip-path="url(#clip370)" d="M64.9272 756.887 Q64.9272 770.095 46.021 770.095 Q38.5413 770.095 28.3562 765.162 L28.3562 758.86 Q38.5413 763.411 46.1802 763.411 Q59.9619 763.411 59.9619 756.345 Q59.9619 749.884 42.8382 749.884 L42.8382 744.473 Q59.9619 744.473 59.9619 738.012 Q59.9619 730.946 46.1802 730.946 Q38.5413 730.946 28.3562 735.498 L28.3562 729.196 Q38.5413 724.262 46.021 724.262 Q64.9272 724.262 64.9272 737.471 Q64.9272 746.129 55.4105 747.179 Q64.9272 748.484 64.9272 756.887 Z" fill="#000000" fill-rule="nonzero" fill-opacity="1"></path><path clip-path="url(#clip370)" d="M14.5426 714.586 L14.5426 709.494 Q22.0542 704.72 29.2474 702.364 Q36.4406 699.977 43.5384 699.977 Q50.668 699.977 57.8931 702.364 Q65.1182 704.72 72.5979 709.494 L72.5979 714.586 Q65.3091 710.353 58.1159 708.284 Q50.8908 706.184 43.5384 706.184 Q36.186 706.184 29.0246 708.284 Q21.8632 710.353 14.5426 714.586 Z" fill="#000000" fill-rule="nonzero" fill-opacity="1"></path><path clip-path="url(#clip370)" d="M1047.3 63.9476 L1047.3 47.7034 L1033.93 47.7034 L1033.93 40.9789 L1055.4 40.9789 L1055.4 66.9452 Q1050.66 70.3075 1044.95 72.0494 Q1039.24 73.7508 1032.76 73.7508 Q1018.58 73.7508 1010.56 65.4869 Q1002.58 57.1826 1002.58 42.3968 Q1002.58 27.5705 1010.56 19.3066 Q1018.58 11.0023 1032.76 11.0023 Q1038.67 11.0023 1043.98 12.4606 Q1049.33 13.9189 1053.82 16.7545 L1053.82 25.464 Q1049.29 21.6156 1044.18 19.6712 Q1039.08 17.7268 1033.45 17.7268 Q1022.35 17.7268 1016.76 23.9246 Q1011.21 30.1225 1011.21 42.3968 Q1011.21 54.6305 1016.76 60.8284 Q1022.35 67.0263 1033.45 67.0263 Q1037.78 67.0263 1041.19 66.2971 Q1044.59 65.5274 1047.3 63.9476 Z" fill="#000000" fill-rule="nonzero" fill-opacity="1"></path><path clip-path="url(#clip370)" d="M1096.32 34.1734 Q1095.06 33.4443 1093.56 33.1202 Q1092.1 32.7556 1090.32 32.7556 Q1084 32.7556 1080.6 36.8875 Q1077.24 40.9789 1077.24 48.6757 L1077.24 72.576 L1069.74 72.576 L1069.74 27.2059 L1077.24 27.2059 L1077.24 34.2544 Q1079.59 30.1225 1083.35 28.1376 Q1087.12 26.1121 1092.51 26.1121 Q1093.28 26.1121 1094.21 26.2337 Q1095.14 26.3147 1096.28 26.5172 L1096.32 34.1734 Z" fill="#000000" fill-rule="nonzero" fill-opacity="1"></path><path clip-path="url(#clip370)" d="M1141.12 48.0275 L1141.12 51.6733 L1106.85 51.6733 Q1107.34 59.3701 1111.47 63.421 Q1115.64 67.4314 1123.05 67.4314 Q1127.35 67.4314 1131.36 66.3781 Q1135.41 65.3249 1139.38 63.2184 L1139.38 70.267 Q1135.37 71.9684 1131.16 72.8596 Q1126.94 73.7508 1122.61 73.7508 Q1111.75 73.7508 1105.39 67.4314 Q1099.07 61.1119 1099.07 50.3365 Q1099.07 39.1965 1105.07 32.6746 Q1111.1 26.1121 1121.31 26.1121 Q1130.47 26.1121 1135.77 32.0264 Q1141.12 37.9003 1141.12 48.0275 M1133.67 45.84 Q1133.59 39.7232 1130.22 36.0774 Q1126.9 32.4315 1121.39 32.4315 Q1115.15 32.4315 1111.39 35.9558 Q1107.66 39.4801 1107.09 45.8805 L1133.67 45.84 Z" fill="#000000" fill-rule="nonzero" fill-opacity="1"></path><path clip-path="url(#clip370)" d="M1192.16 48.0275 L1192.16 51.6733 L1157.89 51.6733 Q1158.38 59.3701 1162.51 63.421 Q1166.68 67.4314 1174.1 67.4314 Q1178.39 67.4314 1182.4 66.3781 Q1186.45 65.3249 1190.42 63.2184 L1190.42 70.267 Q1186.41 71.9684 1182.2 72.8596 Q1177.98 73.7508 1173.65 73.7508 Q1162.79 73.7508 1156.43 67.4314 Q1150.11 61.1119 1150.11 50.3365 Q1150.11 39.1965 1156.11 32.6746 Q1162.15 26.1121 1172.35 26.1121 Q1181.51 26.1121 1186.82 32.0264 Q1192.16 37.9003 1192.16 48.0275 M1184.71 45.84 Q1184.63 39.7232 1181.27 36.0774 Q1177.94 32.4315 1172.43 32.4315 Q1166.2 32.4315 1162.43 35.9558 Q1158.7 39.4801 1158.13 45.8805 L1184.71 45.84 Z" fill="#000000" fill-rule="nonzero" fill-opacity="1"></path><path clip-path="url(#clip370)" d="M1242.11 45.1919 L1242.11 72.576 L1234.66 72.576 L1234.66 45.4349 Q1234.66 38.994 1232.14 35.7938 Q1229.63 32.5936 1224.61 32.5936 Q1218.57 32.5936 1215.09 36.4419 Q1211.61 40.2903 1211.61 46.9338 L1211.61 72.576 L1204.11 72.576 L1204.11 27.2059 L1211.61 27.2059 L1211.61 34.2544 Q1214.28 30.163 1217.89 28.1376 Q1221.53 26.1121 1226.27 26.1121 Q1234.09 26.1121 1238.1 30.9732 Q1242.11 35.7938 1242.11 45.1919 Z" fill="#000000" fill-rule="nonzero" fill-opacity="1"></path><path clip-path="url(#clip370)" d="M1306.32 9.54393 L1306.32 15.7418 L1299.19 15.7418 Q1295.18 15.7418 1293.6 17.3622 Q1292.06 18.9825 1292.06 23.1955 L1292.06 27.2059 L1304.33 27.2059 L1304.33 32.9987 L1292.06 32.9987 L1292.06 72.576 L1284.56 72.576 L1284.56 32.9987 L1277.43 32.9987 L1277.43 27.2059 L1284.56 27.2059 L1284.56 24.0462 Q1284.56 16.471 1288.09 13.0277 Q1291.61 9.54393 1299.27 9.54393 L1306.32 9.54393 Z" fill="#000000" fill-rule="nonzero" fill-opacity="1"></path><path clip-path="url(#clip370)" d="M1311.79 54.671 L1311.79 27.2059 L1319.24 27.2059 L1319.24 54.3874 Q1319.24 60.8284 1321.75 64.0691 Q1324.26 67.2693 1329.29 67.2693 Q1335.32 67.2693 1338.81 63.421 Q1342.33 59.5726 1342.33 52.9291 L1342.33 27.2059 L1349.78 27.2059 L1349.78 72.576 L1342.33 72.576 L1342.33 65.6084 Q1339.62 69.7404 1336.01 71.7658 Q1332.45 73.7508 1327.71 73.7508 Q1319.89 73.7508 1315.84 68.8897 Q1311.79 64.0286 1311.79 54.671 M1330.54 26.1121 L1330.54 26.1121 Z" fill="#000000" fill-rule="nonzero" fill-opacity="1"></path><path clip-path="url(#clip370)" d="M1402.85 45.1919 L1402.85 72.576 L1395.4 72.576 L1395.4 45.4349 Q1395.4 38.994 1392.88 35.7938 Q1390.37 32.5936 1385.35 32.5936 Q1379.31 32.5936 1375.83 36.4419 Q1372.35 40.2903 1372.35 46.9338 L1372.35 72.576 L1364.85 72.576 L1364.85 27.2059 L1372.35 27.2059 L1372.35 34.2544 Q1375.02 30.163 1378.63 28.1376 Q1382.27 26.1121 1387.01 26.1121 Q1394.83 26.1121 1398.84 30.9732 Q1402.85 35.7938 1402.85 45.1919 Z" fill="#000000" fill-rule="nonzero" fill-opacity="1"></path><path clip-path="url(#clip370)" d="M1450.37 28.9478 L1450.37 35.9153 Q1447.21 34.1734 1444.01 33.3227 Q1440.85 32.4315 1437.61 32.4315 Q1430.36 32.4315 1426.35 37.0496 Q1422.33 41.6271 1422.33 49.9314 Q1422.33 58.2358 1426.35 62.8538 Q1430.36 67.4314 1437.61 67.4314 Q1440.85 67.4314 1444.01 66.5807 Q1447.21 65.6895 1450.37 63.9476 L1450.37 70.8341 Q1447.25 72.2924 1443.89 73.0216 Q1440.56 73.7508 1436.8 73.7508 Q1426.55 73.7508 1420.51 67.3098 Q1414.48 60.8689 1414.48 49.9314 Q1414.48 38.832 1420.55 32.472 Q1426.67 26.1121 1437.28 26.1121 Q1440.73 26.1121 1444.01 26.8413 Q1447.29 27.5299 1450.37 28.9478 Z" fill="#000000" fill-rule="nonzero" fill-opacity="1"></path><path clip-path="url(#clip370)" d="M1470.7 14.324 L1470.7 27.2059 L1486.06 27.2059 L1486.06 32.9987 L1470.7 32.9987 L1470.7 57.6282 Q1470.7 63.1779 1472.2 64.7578 Q1473.74 66.3376 1478.4 66.3376 L1486.06 66.3376 L1486.06 72.576 L1478.4 72.576 Q1469.77 72.576 1466.49 69.3758 Q1463.21 66.1351 1463.21 57.6282 L1463.21 32.9987 L1457.74 32.9987 L1457.74 27.2059 L1463.21 27.2059 L1463.21 14.324 L1470.7 14.324 Z" fill="#000000" fill-rule="nonzero" fill-opacity="1"></path><path clip-path="url(#clip370)" d="M1495.86 27.2059 L1503.31 27.2059 L1503.31 72.576 L1495.86 72.576 L1495.86 27.2059 M1495.86 9.54393 L1503.31 9.54393 L1503.31 18.9825 L1495.86 18.9825 L1495.86 9.54393 Z" fill="#000000" fill-rule="nonzero" fill-opacity="1"></path><path clip-path="url(#clip370)" d="M1536.49 32.4315 Q1530.49 32.4315 1527.01 37.1306 Q1523.53 41.7891 1523.53 49.9314 Q1523.53 58.0738 1526.97 62.7728 Q1530.45 67.4314 1536.49 67.4314 Q1542.44 67.4314 1545.93 62.7323 Q1549.41 58.0333 1549.41 49.9314 Q1549.41 41.8701 1545.93 37.1711 Q1542.44 32.4315 1536.49 32.4315 M1536.49 26.1121 Q1546.21 26.1121 1551.76 32.4315 Q1557.31 38.7509 1557.31 49.9314 Q1557.31 61.0714 1551.76 67.4314 Q1546.21 73.7508 1536.49 73.7508 Q1526.73 73.7508 1521.18 67.4314 Q1515.67 61.0714 1515.67 49.9314 Q1515.67 38.7509 1521.18 32.4315 Q1526.73 26.1121 1536.49 26.1121 Z" fill="#000000" fill-rule="nonzero" fill-opacity="1"></path><path clip-path="url(#clip370)" d="M1607.38 45.1919 L1607.38 72.576 L1599.93 72.576 L1599.93 45.4349 Q1599.93 38.994 1597.41 35.7938 Q1594.9 32.5936 1589.88 32.5936 Q1583.84 32.5936 1580.36 36.4419 Q1576.88 40.2903 1576.88 46.9338 L1576.88 72.576 L1569.38 72.576 L1569.38 27.2059 L1576.88 27.2059 L1576.88 34.2544 Q1579.55 30.163 1583.16 28.1376 Q1586.8 26.1121 1591.54 26.1121 Q1599.36 26.1121 1603.37 30.9732 Q1607.38 35.7938 1607.38 45.1919 Z" fill="#000000" fill-rule="nonzero" fill-opacity="1"></path><circle clip-path="url(#clip372)" cx="316.512" cy="1003.23" r="14.4" fill="#009af9" fill-rule="evenodd" fill-opacity="1" stroke="#000000" stroke-opacity="1" stroke-width="3.2"></circle>
<circle clip-path="url(#clip372)" cx="384.682" cy="1027.61" r="14.4" fill="#009af9" fill-rule="evenodd" fill-opacity="1" stroke="#000000" stroke-opacity="1" stroke-width="3.2"></circle>
<circle clip-path="url(#clip372)" cx="452.852" cy="1065.2" r="14.4" fill="#009af9" fill-rule="evenodd" fill-opacity="1" stroke="#000000" stroke-opacity="1" stroke-width="3.2"></circle>
<circle clip-path="url(#clip372)" cx="521.023" cy="1109.26" r="14.4" fill="#009af9" fill-rule="evenodd" fill-opacity="1" stroke="#000000" stroke-opacity="1" stroke-width="3.2"></circle>
<circle clip-path="url(#clip372)" cx="589.193" cy="1194.84" r="14.4" fill="#009af9" fill-rule="evenodd" fill-opacity="1" stroke="#000000" stroke-opacity="1" stroke-width="3.2"></circle>
<circle clip-path="url(#clip372)" cx="657.363" cy="1386.4" r="14.4" fill="#009af9" fill-rule="evenodd" fill-opacity="1" stroke="#000000" stroke-opacity="1" stroke-width="3.2"></circle>
<circle clip-path="url(#clip372)" cx="725.533" cy="1203.47" r="14.4" fill="#009af9" fill-rule="evenodd" fill-opacity="1" stroke="#000000" stroke-opacity="1" stroke-width="3.2"></circle>
<circle clip-path="url(#clip372)" cx="793.703" cy="1159.39" r="14.4" fill="#009af9" fill-rule="evenodd" fill-opacity="1" stroke="#000000" stroke-opacity="1" stroke-width="3.2"></circle>
<circle clip-path="url(#clip372)" cx="861.874" cy="1127.97" r="14.4" fill="#009af9" fill-rule="evenodd" fill-opacity="1" stroke="#000000" stroke-opacity="1" stroke-width="3.2"></circle>
<circle clip-path="url(#clip372)" cx="930.044" cy="1108.83" r="14.4" fill="#009af9" fill-rule="evenodd" fill-opacity="1" stroke="#000000" stroke-opacity="1" stroke-width="3.2"></circle>
<circle clip-path="url(#clip372)" cx="998.214" cy="1097.24" r="14.4" fill="#009af9" fill-rule="evenodd" fill-opacity="1" stroke="#000000" stroke-opacity="1" stroke-width="3.2"></circle>
<circle clip-path="url(#clip372)" cx="1066.38" cy="1094.04" r="14.4" fill="#009af9" fill-rule="evenodd" fill-opacity="1" stroke="#000000" stroke-opacity="1" stroke-width="3.2"></circle>
<circle clip-path="url(#clip372)" cx="1134.55" cy="1083.66" r="14.4" fill="#009af9" fill-rule="evenodd" fill-opacity="1" stroke="#000000" stroke-opacity="1" stroke-width="3.2"></circle>
<circle clip-path="url(#clip372)" cx="1202.72" cy="1082.8" r="14.4" fill="#009af9" fill-rule="evenodd" fill-opacity="1" stroke="#000000" stroke-opacity="1" stroke-width="3.2"></circle>
<circle clip-path="url(#clip372)" cx="1270.89" cy="1073.65" r="14.4" fill="#009af9" fill-rule="evenodd" fill-opacity="1" stroke="#000000" stroke-opacity="1" stroke-width="3.2"></circle>
<circle clip-path="url(#clip372)" cx="1339.07" cy="468.963" r="14.4" fill="#009af9" fill-rule="evenodd" fill-opacity="1" stroke="#000000" stroke-opacity="1" stroke-width="3.2"></circle>
<circle clip-path="url(#clip372)" cx="1407.24" cy="457.168" r="14.4" fill="#009af9" fill-rule="evenodd" fill-opacity="1" stroke="#000000" stroke-opacity="1" stroke-width="3.2"></circle>
<circle clip-path="url(#clip372)" cx="1475.41" cy="457.2" r="14.4" fill="#009af9" fill-rule="evenodd" fill-opacity="1" stroke="#000000" stroke-opacity="1" stroke-width="3.2"></circle>
<circle clip-path="url(#clip372)" cx="1543.58" cy="446.28" r="14.4" fill="#009af9" fill-rule="evenodd" fill-opacity="1" stroke="#000000" stroke-opacity="1" stroke-width="3.2"></circle>
<circle clip-path="url(#clip372)" cx="1611.75" cy="442.333" r="14.4" fill="#009af9" fill-rule="evenodd" fill-opacity="1" stroke="#000000" stroke-opacity="1" stroke-width="3.2"></circle>
<circle clip-path="url(#clip372)" cx="1679.92" cy="432.529" r="14.4" fill="#009af9" fill-rule="evenodd" fill-opacity="1" stroke="#000000" stroke-opacity="1" stroke-width="3.2"></circle>
<circle clip-path="url(#clip372)" cx="1748.09" cy="411.35" r="14.4" fill="#009af9" fill-rule="evenodd" fill-opacity="1" stroke="#000000" stroke-opacity="1" stroke-width="3.2"></circle>
<circle clip-path="url(#clip372)" cx="1816.26" cy="380.183" r="14.4" fill="#009af9" fill-rule="evenodd" fill-opacity="1" stroke="#000000" stroke-opacity="1" stroke-width="3.2"></circle>
<circle clip-path="url(#clip372)" cx="1884.43" cy="337.098" r="14.4" fill="#009af9" fill-rule="evenodd" fill-opacity="1" stroke="#000000" stroke-opacity="1" stroke-width="3.2"></circle>
<circle clip-path="url(#clip372)" cx="1952.6" cy="160.256" r="14.4" fill="#009af9" fill-rule="evenodd" fill-opacity="1" stroke="#000000" stroke-opacity="1" stroke-width="3.2"></circle>
<circle clip-path="url(#clip372)" cx="2020.77" cy="342.236" r="14.4" fill="#009af9" fill-rule="evenodd" fill-opacity="1" stroke="#000000" stroke-opacity="1" stroke-width="3.2"></circle>
<circle clip-path="url(#clip372)" cx="2088.94" cy="422.081" r="14.4" fill="#009af9" fill-rule="evenodd" fill-opacity="1" stroke="#000000" stroke-opacity="1" stroke-width="3.2"></circle>
<circle clip-path="url(#clip372)" cx="2157.11" cy="473.805" r="14.4" fill="#009af9" fill-rule="evenodd" fill-opacity="1" stroke="#000000" stroke-opacity="1" stroke-width="3.2"></circle>
<circle clip-path="url(#clip372)" cx="2225.28" cy="510.448" r="14.4" fill="#009af9" fill-rule="evenodd" fill-opacity="1" stroke="#000000" stroke-opacity="1" stroke-width="3.2"></circle>
<circle clip-path="url(#clip372)" cx="2293.45" cy="533.946" r="14.4" fill="#009af9" fill-rule="evenodd" fill-opacity="1" stroke="#000000" stroke-opacity="1" stroke-width="3.2"></circle>
<circle clip-path="url(#clip372)" cx="316.512" cy="769.671" r="14.4" fill="#e26f46" fill-rule="evenodd" fill-opacity="1" stroke="#000000" stroke-opacity="1" stroke-width="3.2"></circle>
<circle clip-path="url(#clip372)" cx="384.682" cy="769.671" r="14.4" fill="#e26f46" fill-rule="evenodd" fill-opacity="1" stroke="#000000" stroke-opacity="1" stroke-width="3.2"></circle>
<circle clip-path="url(#clip372)" cx="452.852" cy="769.671" r="14.4" fill="#e26f46" fill-rule="evenodd" fill-opacity="1" stroke="#000000" stroke-opacity="1" stroke-width="3.2"></circle>
<circle clip-path="url(#clip372)" cx="521.023" cy="769.671" r="14.4" fill="#e26f46" fill-rule="evenodd" fill-opacity="1" stroke="#000000" stroke-opacity="1" stroke-width="3.2"></circle>
<circle clip-path="url(#clip372)" cx="589.193" cy="769.671" r="14.4" fill="#e26f46" fill-rule="evenodd" fill-opacity="1" stroke="#000000" stroke-opacity="1" stroke-width="3.2"></circle>
<circle clip-path="url(#clip372)" cx="657.363" cy="669.281" r="14.4" fill="#e26f46" fill-rule="evenodd" fill-opacity="1" stroke="#000000" stroke-opacity="1" stroke-width="3.2"></circle>
<circle clip-path="url(#clip372)" cx="725.533" cy="663.642" r="14.4" fill="#e26f46" fill-rule="evenodd" fill-opacity="1" stroke="#000000" stroke-opacity="1" stroke-width="3.2"></circle>
<circle clip-path="url(#clip372)" cx="793.703" cy="657.132" r="14.4" fill="#e26f46" fill-rule="evenodd" fill-opacity="1" stroke="#000000" stroke-opacity="1" stroke-width="3.2"></circle>
<circle clip-path="url(#clip372)" cx="861.874" cy="649.48" r="14.4" fill="#e26f46" fill-rule="evenodd" fill-opacity="1" stroke="#000000" stroke-opacity="1" stroke-width="3.2"></circle>
<circle clip-path="url(#clip372)" cx="930.044" cy="640.299" r="14.4" fill="#e26f46" fill-rule="evenodd" fill-opacity="1" stroke="#000000" stroke-opacity="1" stroke-width="3.2"></circle>
<circle clip-path="url(#clip372)" cx="998.214" cy="628.955" r="14.4" fill="#e26f46" fill-rule="evenodd" fill-opacity="1" stroke="#000000" stroke-opacity="1" stroke-width="3.2"></circle>
<circle clip-path="url(#clip372)" cx="1066.38" cy="614.344" r="14.4" fill="#e26f46" fill-rule="evenodd" fill-opacity="1" stroke="#000000" stroke-opacity="1" stroke-width="3.2"></circle>
<circle clip-path="url(#clip372)" cx="1134.55" cy="594.236" r="14.4" fill="#e26f46" fill-rule="evenodd" fill-opacity="1" stroke="#000000" stroke-opacity="1" stroke-width="3.2"></circle>
<circle clip-path="url(#clip372)" cx="1202.72" cy="562.909" r="14.4" fill="#e26f46" fill-rule="evenodd" fill-opacity="1" stroke="#000000" stroke-opacity="1" stroke-width="3.2"></circle>
<circle clip-path="url(#clip372)" cx="1270.89" cy="494.022" r="14.4" fill="#e26f46" fill-rule="evenodd" fill-opacity="1" stroke="#000000" stroke-opacity="1" stroke-width="3.2"></circle>
<circle clip-path="url(#clip372)" cx="1339.07" cy="494.026" r="14.4" fill="#e26f46" fill-rule="evenodd" fill-opacity="1" stroke="#000000" stroke-opacity="1" stroke-width="3.2"></circle>
<circle clip-path="url(#clip372)" cx="1407.24" cy="562.908" r="14.4" fill="#e26f46" fill-rule="evenodd" fill-opacity="1" stroke="#000000" stroke-opacity="1" stroke-width="3.2"></circle>
<circle clip-path="url(#clip372)" cx="1475.41" cy="594.236" r="14.4" fill="#e26f46" fill-rule="evenodd" fill-opacity="1" stroke="#000000" stroke-opacity="1" stroke-width="3.2"></circle>
<circle clip-path="url(#clip372)" cx="1543.58" cy="614.344" r="14.4" fill="#e26f46" fill-rule="evenodd" fill-opacity="1" stroke="#000000" stroke-opacity="1" stroke-width="3.2"></circle>
<circle clip-path="url(#clip372)" cx="1611.75" cy="628.955" r="14.4" fill="#e26f46" fill-rule="evenodd" fill-opacity="1" stroke="#000000" stroke-opacity="1" stroke-width="3.2"></circle>
<circle clip-path="url(#clip372)" cx="1679.92" cy="640.3" r="14.4" fill="#e26f46" fill-rule="evenodd" fill-opacity="1" stroke="#000000" stroke-opacity="1" stroke-width="3.2"></circle>
<circle clip-path="url(#clip372)" cx="1748.09" cy="649.481" r="14.4" fill="#e26f46" fill-rule="evenodd" fill-opacity="1" stroke="#000000" stroke-opacity="1" stroke-width="3.2"></circle>
<circle clip-path="url(#clip372)" cx="1816.26" cy="657.132" r="14.4" fill="#e26f46" fill-rule="evenodd" fill-opacity="1" stroke="#000000" stroke-opacity="1" stroke-width="3.2"></circle>
<circle clip-path="url(#clip372)" cx="1884.43" cy="663.641" r="14.4" fill="#e26f46" fill-rule="evenodd" fill-opacity="1" stroke="#000000" stroke-opacity="1" stroke-width="3.2"></circle>
<circle clip-path="url(#clip372)" cx="1952.6" cy="669.282" r="14.4" fill="#e26f46" fill-rule="evenodd" fill-opacity="1" stroke="#000000" stroke-opacity="1" stroke-width="3.2"></circle>
<circle clip-path="url(#clip372)" cx="2020.77" cy="769.671" r="14.4" fill="#e26f46" fill-rule="evenodd" fill-opacity="1" stroke="#000000" stroke-opacity="1" stroke-width="3.2"></circle>
<circle clip-path="url(#clip372)" cx="2088.94" cy="769.671" r="14.4" fill="#e26f46" fill-rule="evenodd" fill-opacity="1" stroke="#000000" stroke-opacity="1" stroke-width="3.2"></circle>
<circle clip-path="url(#clip372)" cx="2157.11" cy="769.671" r="14.4" fill="#e26f46" fill-rule="evenodd" fill-opacity="1" stroke="#000000" stroke-opacity="1" stroke-width="3.2"></circle>
<circle clip-path="url(#clip372)" cx="2225.28" cy="769.671" r="14.4" fill="#e26f46" fill-rule="evenodd" fill-opacity="1" stroke="#000000" stroke-opacity="1" stroke-width="3.2"></circle>
<circle clip-path="url(#clip372)" cx="2293.45" cy="769.671" r="14.4" fill="#e26f46" fill-rule="evenodd" fill-opacity="1" stroke="#000000" stroke-opacity="1" stroke-width="3.2"></circle>
<path clip-path="url(#clip370)" d="M327.056 322.316 L589.412 322.316 L589.412 166.796 L327.056 166.796  Z" fill="#ffffff" fill-rule="evenodd" fill-opacity="1"></path>
<polyline clip-path="url(#clip370)" style="stroke:#000000; stroke-linecap:round; stroke-linejoin:round; stroke-width:4; stroke-opacity:1; fill:none" points="327.056,322.316 589.412,322.316 589.412,166.796 327.056,166.796 327.056,322.316 "></polyline>
<circle clip-path="url(#clip370)" cx="420.191" cy="218.636" r="20.48" fill="#009af9" fill-rule="evenodd" fill-opacity="1" stroke="#000000" stroke-opacity="1" stroke-width="4.55111"></circle>
<path clip-path="url(#clip370)" d="M529.716 219.712 Q531.22 220.221 532.632 221.888 Q534.068 223.555 535.503 226.471 L540.248 235.916 L535.225 235.916 L530.804 227.05 Q529.091 223.578 527.47 222.444 Q525.873 221.309 523.096 221.309 L518.003 221.309 L518.003 235.916 L513.327 235.916 L513.327 201.356 L523.883 201.356 Q529.808 201.356 532.725 203.833 Q535.642 206.309 535.642 211.309 Q535.642 214.573 534.114 216.726 Q532.609 218.879 529.716 219.712 M518.003 205.198 L518.003 217.467 L523.883 217.467 Q527.262 217.467 528.975 215.916 Q530.711 214.342 530.711 211.309 Q530.711 208.277 528.975 206.749 Q527.262 205.198 523.883 205.198 L518.003 205.198 Z" fill="#000000" fill-rule="nonzero" fill-opacity="1"></path><path clip-path="url(#clip370)" d="M566.128 221.888 L566.128 223.971 L546.544 223.971 Q546.822 228.369 549.183 230.684 Q551.568 232.976 555.804 232.976 Q558.257 232.976 560.549 232.374 Q562.864 231.772 565.132 230.569 L565.132 234.596 Q562.841 235.568 560.433 236.078 Q558.026 236.587 555.549 236.587 Q549.345 236.587 545.711 232.976 Q542.1 229.365 542.1 223.207 Q542.1 216.842 545.526 213.115 Q548.975 209.365 554.808 209.365 Q560.04 209.365 563.072 212.745 Q566.128 216.101 566.128 221.888 M561.868 220.638 Q561.822 217.143 559.901 215.059 Q558.003 212.976 554.855 212.976 Q551.29 212.976 549.137 214.99 Q547.007 217.004 546.683 220.661 L561.868 220.638 Z" fill="#000000" fill-rule="nonzero" fill-opacity="1"></path><circle clip-path="url(#clip370)" cx="420.191" cy="270.476" r="20.48" fill="#e26f46" fill-rule="evenodd" fill-opacity="1" stroke="#000000" stroke-opacity="1" stroke-width="4.55111"></circle>
<path clip-path="url(#clip370)" d="M513.327 253.196 L518.003 253.196 L518.003 287.756 L513.327 287.756 L513.327 253.196 Z" fill="#000000" fill-rule="nonzero" fill-opacity="1"></path><path clip-path="url(#clip370)" d="M547.308 266.807 Q548.906 263.936 551.128 262.571 Q553.35 261.205 556.359 261.205 Q560.41 261.205 562.609 264.052 Q564.808 266.876 564.808 272.108 L564.808 287.756 L560.526 287.756 L560.526 272.247 Q560.526 268.52 559.206 266.714 Q557.887 264.909 555.179 264.909 Q551.868 264.909 549.947 267.108 Q548.026 269.307 548.026 273.103 L548.026 287.756 L543.744 287.756 L543.744 272.247 Q543.744 268.497 542.424 266.714 Q541.105 264.909 538.35 264.909 Q535.086 264.909 533.165 267.131 Q531.244 269.33 531.244 273.103 L531.244 287.756 L526.961 287.756 L526.961 261.83 L531.244 261.83 L531.244 265.858 Q532.702 263.473 534.739 262.339 Q536.776 261.205 539.577 261.205 Q542.401 261.205 544.369 262.64 Q546.359 264.075 547.308 266.807 Z" fill="#000000" fill-rule="nonzero" fill-opacity="1"></path></svg>