<svg xmlns="http://www.w3.org/2000/svg" xmlns:xlink="http://www.w3.org/1999/xlink" width="600" height="400" viewBox="0 0 2400 1600">
<defs>
  <clipPath id="clip930">
    <rect x="0" y="0" width="2400" height="1600"></rect>
  </clipPath>
</defs>
<path clip-path="url(#clip930)" d="M0 1600 L2400 1600 L2400 0 L0 0  Z" fill="#ffffff" fill-rule="evenodd" fill-opacity="1"></path>
<defs>
  <clipPath id="clip931">
    <rect x="480" y="0" width="1681" height="1600"></rect>
  </clipPath>
</defs>
<path clip-path="url(#clip930)" d="M252.501 1410.9 L2352.76 1410.9 L2352.76 47.2441 L252.501 47.2441  Z" fill="#ffffff" fill-rule="evenodd" fill-opacity="1"></path>
<defs>
  <clipPath id="clip932">
    <rect x="252" y="47" width="2101" height="1365"></rect>
  </clipPath>
</defs>
<polyline clip-path="url(#clip932)" style="stroke:#000000; stroke-linecap:round; stroke-linejoin:round; stroke-width:2; stroke-opacity:0.1; fill:none" points="967.897,1410.9 967.897,47.2441 "></polyline>
<polyline clip-path="url(#clip932)" style="stroke:#000000; stroke-linecap:round; stroke-linejoin:round; stroke-width:2; stroke-opacity:0.1; fill:none" points="1915.92,1410.9 1915.92,47.2441 "></polyline>
<polyline clip-path="url(#clip932)" style="stroke:#000000; stroke-linecap:round; stroke-linejoin:round; stroke-width:2; stroke-opacity:0.1; fill:none" points="252.501,990.002 2352.76,990.002 "></polyline>
<polyline clip-path="url(#clip932)" style="stroke:#000000; stroke-linecap:round; stroke-linejoin:round; stroke-width:2; stroke-opacity:0.1; fill:none" points="252.501,499.586 2352.76,499.586 "></polyline>
<polyline clip-path="url(#clip930)" style="stroke:#000000; stroke-linecap:round; stroke-linejoin:round; stroke-width:4; stroke-opacity:1; fill:none" points="252.501,1410.9 2352.76,1410.9 "></polyline>
<polyline clip-path="url(#clip930)" style="stroke:#000000; stroke-linecap:round; stroke-linejoin:round; stroke-width:4; stroke-opacity:1; fill:none" points="967.897,1410.9 967.897,1392 "></polyline>
<polyline clip-path="url(#clip930)" style="stroke:#000000; stroke-linecap:round; stroke-linejoin:round; stroke-width:4; stroke-opacity:1; fill:none" points="1915.92,1410.9 1915.92,1392 "></polyline>
<path clip-path="url(#clip930)" d="M918.163 1485.02 L925.802 1485.02 L925.802 1458.66 L917.492 1460.32 L917.492 1456.06 L925.756 1454.4 L930.432 1454.4 L930.432 1485.02 L938.071 1485.02 L938.071 1488.96 L918.163 1488.96 L918.163 1485.02 Z" fill="#000000" fill-rule="nonzero" fill-opacity="1"></path><path clip-path="url(#clip930)" d="M957.515 1457.48 Q953.904 1457.48 952.075 1461.04 Q950.27 1464.58 950.27 1471.71 Q950.27 1478.82 952.075 1482.38 Q953.904 1485.92 957.515 1485.92 Q961.149 1485.92 962.955 1482.38 Q964.783 1478.82 964.783 1471.71 Q964.783 1464.58 962.955 1461.04 Q961.149 1457.48 957.515 1457.48 M957.515 1453.77 Q963.325 1453.77 966.381 1458.38 Q969.459 1462.96 969.459 1471.71 Q969.459 1480.44 966.381 1485.04 Q963.325 1489.63 957.515 1489.63 Q951.705 1489.63 948.626 1485.04 Q945.57 1480.44 945.57 1471.71 Q945.57 1462.96 948.626 1458.38 Q951.705 1453.77 957.515 1453.77 Z" fill="#000000" fill-rule="nonzero" fill-opacity="1"></path><path clip-path="url(#clip930)" d="M969.459 1447.87 L993.571 1447.87 L993.571 1451.07 L969.459 1451.07 L969.459 1447.87 Z" fill="#000000" fill-rule="nonzero" fill-opacity="1"></path><path clip-path="url(#clip930)" d="M1005.04 1458.35 L1018.3 1458.35 L1018.3 1461.55 L1000.47 1461.55 L1000.47 1458.35 Q1002.64 1456.11 1006.36 1452.35 Q1010.1 1448.57 1011.06 1447.48 Q1012.89 1445.43 1013.6 1444.02 Q1014.33 1442.59 1014.33 1441.22 Q1014.33 1438.98 1012.75 1437.57 Q1011.19 1436.16 1008.67 1436.16 Q1006.89 1436.16 1004.89 1436.78 Q1002.92 1437.4 1000.66 1438.66 L1000.66 1434.82 Q1002.96 1433.9 1004.95 1433.43 Q1006.94 1432.96 1008.6 1432.96 Q1012.96 1432.96 1015.56 1435.14 Q1018.15 1437.32 1018.15 1440.97 Q1018.15 1442.7 1017.49 1444.26 Q1016.85 1445.8 1015.14 1447.91 Q1014.67 1448.46 1012.15 1451.07 Q1009.63 1453.67 1005.04 1458.35 Z" fill="#000000" fill-rule="nonzero" fill-opacity="1"></path><path clip-path="url(#clip930)" d="M1880.9 1485.02 L1888.54 1485.02 L1888.54 1458.66 L1880.23 1460.32 L1880.23 1456.06 L1888.49 1454.4 L1893.17 1454.4 L1893.17 1485.02 L1900.81 1485.02 L1900.81 1488.96 L1880.9 1488.96 L1880.9 1485.02 Z" fill="#000000" fill-rule="nonzero" fill-opacity="1"></path><path clip-path="url(#clip930)" d="M1920.25 1457.48 Q1916.64 1457.48 1914.81 1461.04 Q1913.01 1464.58 1913.01 1471.71 Q1913.01 1478.82 1914.81 1482.38 Q1916.64 1485.92 1920.25 1485.92 Q1923.89 1485.92 1925.69 1482.38 Q1927.52 1478.82 1927.52 1471.71 Q1927.52 1464.58 1925.69 1461.04 Q1923.89 1457.48 1920.25 1457.48 M1920.25 1453.77 Q1926.06 1453.77 1929.12 1458.38 Q1932.2 1462.96 1932.2 1471.71 Q1932.2 1480.44 1929.12 1485.04 Q1926.06 1489.63 1920.25 1489.63 Q1914.44 1489.63 1911.36 1485.04 Q1908.31 1480.44 1908.31 1471.71 Q1908.31 1462.96 1911.36 1458.38 Q1914.44 1453.77 1920.25 1453.77 Z" fill="#000000" fill-rule="nonzero" fill-opacity="1"></path><path clip-path="url(#clip930)" d="M1941.9 1435.97 Q1938.97 1435.97 1937.48 1438.86 Q1936.01 1441.74 1936.01 1447.53 Q1936.01 1453.31 1937.48 1456.2 Q1938.97 1459.08 1941.9 1459.08 Q1944.85 1459.08 1946.32 1456.2 Q1947.81 1453.31 1947.81 1447.53 Q1947.81 1441.74 1946.32 1438.86 Q1944.85 1435.97 1941.9 1435.97 M1941.9 1432.96 Q1946.62 1432.96 1949.1 1436.7 Q1951.61 1440.43 1951.61 1447.53 Q1951.61 1454.62 1949.1 1458.37 Q1946.62 1462.09 1941.9 1462.09 Q1937.18 1462.09 1934.68 1458.37 Q1932.2 1454.62 1932.2 1447.53 Q1932.2 1440.43 1934.68 1436.7 Q1937.18 1432.96 1941.9 1432.96 Z" fill="#000000" fill-rule="nonzero" fill-opacity="1"></path><path clip-path="url(#clip930)" d="M1158.51 1544.01 Q1157.52 1543.44 1156.34 1543.18 Q1155.2 1542.9 1153.8 1542.9 Q1148.83 1542.9 1146.16 1546.14 Q1143.52 1549.36 1143.52 1555.41 L1143.52 1574.19 L1137.63 1574.19 L1137.63 1538.54 L1143.52 1538.54 L1143.52 1544.08 Q1145.36 1540.83 1148.32 1539.27 Q1151.28 1537.68 1155.52 1537.68 Q1156.12 1537.68 1156.85 1537.77 Q1157.59 1537.84 1158.48 1538 L1158.51 1544.01 Z" fill="#000000" fill-rule="nonzero" fill-opacity="1"></path><path clip-path="url(#clip930)" d="M1164.05 1560.12 L1164.05 1538.54 L1169.9 1538.54 L1169.9 1559.89 Q1169.9 1564.96 1171.88 1567.5 Q1173.85 1570.02 1177.8 1570.02 Q1182.54 1570.02 1185.28 1566.99 Q1188.05 1563.97 1188.05 1558.75 L1188.05 1538.54 L1193.9 1538.54 L1193.9 1574.19 L1188.05 1574.19 L1188.05 1568.71 Q1185.91 1571.96 1183.08 1573.55 Q1180.28 1575.11 1176.56 1575.11 Q1170.41 1575.11 1167.23 1571.29 Q1164.05 1567.47 1164.05 1560.12 M1178.78 1537.68 L1178.78 1537.68 Z" fill="#000000" fill-rule="nonzero" fill-opacity="1"></path><path clip-path="url(#clip930)" d="M1235.6 1552.67 L1235.6 1574.19 L1229.74 1574.19 L1229.74 1552.86 Q1229.74 1547.8 1227.77 1545.29 Q1225.79 1542.77 1221.85 1542.77 Q1217.11 1542.77 1214.37 1545.79 Q1211.63 1548.82 1211.63 1554.04 L1211.63 1574.19 L1205.74 1574.19 L1205.74 1538.54 L1211.63 1538.54 L1211.63 1544.08 Q1213.73 1540.86 1216.56 1539.27 Q1219.43 1537.68 1223.15 1537.68 Q1229.3 1537.68 1232.45 1541.5 Q1235.6 1545.29 1235.6 1552.67 Z" fill="#000000" fill-rule="nonzero" fill-opacity="1"></path><path clip-path="url(#clip930)" d="M1253.07 1528.42 L1253.07 1538.54 L1265.13 1538.54 L1265.13 1543.09 L1253.07 1543.09 L1253.07 1562.44 Q1253.07 1566.8 1254.25 1568.04 Q1255.46 1569.28 1259.12 1569.28 L1265.13 1569.28 L1265.13 1574.19 L1259.12 1574.19 Q1252.34 1574.19 1249.76 1571.67 Q1247.18 1569.12 1247.18 1562.44 L1247.18 1543.09 L1242.89 1543.09 L1242.89 1538.54 L1247.18 1538.54 L1247.18 1528.42 L1253.07 1528.42 Z" fill="#000000" fill-rule="nonzero" fill-opacity="1"></path><path clip-path="url(#clip930)" d="M1272.84 1538.54 L1278.69 1538.54 L1278.69 1574.19 L1272.84 1574.19 L1272.84 1538.54 M1272.84 1524.66 L1278.69 1524.66 L1278.69 1532.08 L1272.84 1532.08 L1272.84 1524.66 Z" fill="#000000" fill-rule="nonzero" fill-opacity="1"></path><path clip-path="url(#clip930)" d="M1318.7 1545.38 Q1320.9 1541.43 1323.95 1539.56 Q1327.01 1537.68 1331.15 1537.68 Q1336.72 1537.68 1339.74 1541.59 Q1342.76 1545.48 1342.76 1552.67 L1342.76 1574.19 L1336.88 1574.19 L1336.88 1552.86 Q1336.88 1547.74 1335.06 1545.25 Q1333.25 1542.77 1329.52 1542.77 Q1324.97 1542.77 1322.33 1545.79 Q1319.69 1548.82 1319.69 1554.04 L1319.69 1574.19 L1313.8 1574.19 L1313.8 1552.86 Q1313.8 1547.7 1311.99 1545.25 Q1310.17 1542.77 1306.38 1542.77 Q1301.9 1542.77 1299.25 1545.83 Q1296.61 1548.85 1296.61 1554.04 L1296.61 1574.19 L1290.72 1574.19 L1290.72 1538.54 L1296.61 1538.54 L1296.61 1544.08 Q1298.62 1540.8 1301.42 1539.24 Q1304.22 1537.68 1308.07 1537.68 Q1311.95 1537.68 1314.66 1539.65 Q1317.4 1541.62 1318.7 1545.38 Z" fill="#000000" fill-rule="nonzero" fill-opacity="1"></path><path clip-path="url(#clip930)" d="M1384.94 1554.9 L1384.94 1557.76 L1358.01 1557.76 Q1358.39 1563.81 1361.64 1566.99 Q1364.92 1570.14 1370.74 1570.14 Q1374.12 1570.14 1377.27 1569.32 Q1380.45 1568.49 1383.57 1566.83 L1383.57 1572.37 Q1380.42 1573.71 1377.11 1574.41 Q1373.8 1575.11 1370.39 1575.11 Q1361.86 1575.11 1356.86 1570.14 Q1351.9 1565.18 1351.9 1556.71 Q1351.9 1547.96 1356.61 1542.83 Q1361.35 1537.68 1369.37 1537.68 Q1376.57 1537.68 1380.74 1542.33 Q1384.94 1546.94 1384.94 1554.9 M1379.08 1553.18 Q1379.02 1548.37 1376.37 1545.51 Q1373.77 1542.64 1369.44 1542.64 Q1364.53 1542.64 1361.57 1545.41 Q1358.65 1548.18 1358.2 1553.21 L1379.08 1553.18 Z" fill="#000000" fill-rule="nonzero" fill-opacity="1"></path><path clip-path="url(#clip930)" d="M1408.62 1524.72 Q1404.35 1532.04 1402.28 1539.21 Q1400.21 1546.37 1400.21 1553.72 Q1400.21 1561.07 1402.28 1568.3 Q1404.38 1575.49 1408.62 1582.78 L1403.52 1582.78 Q1398.75 1575.3 1396.36 1568.07 Q1394.01 1560.85 1394.01 1553.72 Q1394.01 1546.62 1396.36 1539.43 Q1398.72 1532.24 1403.52 1524.72 L1408.62 1524.72 Z" fill="#000000" fill-rule="nonzero" fill-opacity="1"></path><path clip-path="url(#clip930)" d="M1442.71 1539.59 L1442.71 1545.13 Q1440.22 1543.85 1437.55 1543.22 Q1434.88 1542.58 1432.01 1542.58 Q1427.65 1542.58 1425.45 1543.92 Q1423.29 1545.25 1423.29 1547.93 Q1423.29 1549.96 1424.85 1551.14 Q1426.41 1552.29 1431.12 1553.34 L1433.13 1553.78 Q1439.36 1555.12 1441.97 1557.57 Q1444.62 1559.99 1444.62 1564.35 Q1444.62 1569.32 1440.67 1572.21 Q1436.75 1575.11 1429.88 1575.11 Q1427.01 1575.11 1423.89 1574.54 Q1420.81 1573.99 1417.37 1572.88 L1417.37 1566.83 Q1420.62 1568.52 1423.77 1569.38 Q1426.92 1570.21 1430.01 1570.21 Q1434.14 1570.21 1436.37 1568.81 Q1438.6 1567.37 1438.6 1564.8 Q1438.6 1562.41 1436.98 1561.14 Q1435.39 1559.86 1429.94 1558.68 L1427.91 1558.21 Q1422.46 1557.06 1420.04 1554.71 Q1417.62 1552.32 1417.62 1548.18 Q1417.62 1543.15 1421.19 1540.42 Q1424.75 1537.68 1431.31 1537.68 Q1434.56 1537.68 1437.42 1538.16 Q1440.29 1538.63 1442.71 1539.59 Z" fill="#000000" fill-rule="nonzero" fill-opacity="1"></path><path clip-path="url(#clip930)" d="M1453.02 1524.72 L1458.11 1524.72 Q1462.88 1532.24 1465.24 1539.43 Q1467.63 1546.62 1467.63 1553.72 Q1467.63 1560.85 1465.24 1568.07 Q1462.88 1575.3 1458.11 1582.78 L1453.02 1582.78 Q1457.25 1575.49 1459.32 1568.3 Q1461.42 1561.07 1461.42 1553.72 Q1461.42 1546.37 1459.32 1539.21 Q1457.25 1532.04 1453.02 1524.72 Z" fill="#000000" fill-rule="nonzero" fill-opacity="1"></path><polyline clip-path="url(#clip930)" style="stroke:#000000; stroke-linecap:round; stroke-linejoin:round; stroke-width:4; stroke-opacity:1; fill:none" points="252.501,1410.9 252.501,47.2441 "></polyline>
<polyline clip-path="url(#clip930)" style="stroke:#000000; stroke-linecap:round; stroke-linejoin:round; stroke-width:4; stroke-opacity:1; fill:none" points="252.501,990.002 271.398,990.002 "></polyline>
<polyline clip-path="url(#clip930)" style="stroke:#000000; stroke-linecap:round; stroke-linejoin:round; stroke-width:4; stroke-opacity:1; fill:none" points="252.501,499.586 271.398,499.586 "></polyline>
<path clip-path="url(#clip930)" d="M114.931 1009.79 L122.57 1009.79 L122.57 983.429 L114.26 985.095 L114.26 980.836 L122.524 979.17 L127.2 979.17 L127.2 1009.79 L134.839 1009.79 L134.839 1013.73 L114.931 1013.73 L114.931 1009.79 Z" fill="#000000" fill-rule="nonzero" fill-opacity="1"></path><path clip-path="url(#clip930)" d="M154.283 982.248 Q150.672 982.248 148.843 985.813 Q147.038 989.355 147.038 996.484 Q147.038 1003.59 148.843 1007.16 Q150.672 1010.7 154.283 1010.7 Q157.917 1010.7 159.723 1007.16 Q161.552 1003.59 161.552 996.484 Q161.552 989.355 159.723 985.813 Q157.917 982.248 154.283 982.248 M154.283 978.545 Q160.093 978.545 163.149 983.151 Q166.227 987.734 166.227 996.484 Q166.227 1005.21 163.149 1009.82 Q160.093 1014.4 154.283 1014.4 Q148.473 1014.4 145.394 1009.82 Q142.339 1005.21 142.339 996.484 Q142.339 987.734 145.394 983.151 Q148.473 978.545 154.283 978.545 Z" fill="#000000" fill-rule="nonzero" fill-opacity="1"></path><path clip-path="url(#clip930)" d="M166.227 972.646 L190.339 972.646 L190.339 975.843 L166.227 975.843 L166.227 972.646 Z" fill="#000000" fill-rule="nonzero" fill-opacity="1"></path><path clip-path="url(#clip930)" d="M207.134 970.765 Q204.577 970.765 203.072 972.514 Q201.586 974.263 201.586 977.31 Q201.586 980.338 203.072 982.106 Q204.577 983.855 207.134 983.855 Q209.692 983.855 211.178 982.106 Q212.683 980.338 212.683 977.31 Q212.683 974.263 211.178 972.514 Q209.692 970.765 207.134 970.765 M214.676 958.86 L214.676 962.32 Q213.247 961.643 211.78 961.286 Q210.332 960.929 208.902 960.929 Q205.141 960.929 203.147 963.468 Q201.172 966.007 200.89 971.141 Q202 969.505 203.674 968.64 Q205.348 967.756 207.36 967.756 Q211.592 967.756 214.037 970.333 Q216.501 972.89 216.501 977.31 Q216.501 981.636 213.943 984.25 Q211.385 986.865 207.134 986.865 Q202.263 986.865 199.686 983.141 Q197.11 979.398 197.11 972.307 Q197.11 965.649 200.27 961.7 Q203.429 957.731 208.752 957.731 Q210.181 957.731 211.629 958.013 Q213.096 958.296 214.676 958.86 Z" fill="#000000" fill-rule="nonzero" fill-opacity="1"></path><path clip-path="url(#clip930)" d="M115.59 519.378 L123.229 519.378 L123.229 493.012 L114.918 494.679 L114.918 490.42 L123.182 488.753 L127.858 488.753 L127.858 519.378 L135.497 519.378 L135.497 523.313 L115.59 523.313 L115.59 519.378 Z" fill="#000000" fill-rule="nonzero" fill-opacity="1"></path><path clip-path="url(#clip930)" d="M154.941 491.832 Q151.33 491.832 149.502 495.397 Q147.696 498.938 147.696 506.068 Q147.696 513.174 149.502 516.739 Q151.33 520.281 154.941 520.281 Q158.576 520.281 160.381 516.739 Q162.21 513.174 162.21 506.068 Q162.21 498.938 160.381 495.397 Q158.576 491.832 154.941 491.832 M154.941 488.128 Q160.752 488.128 163.807 492.735 Q166.886 497.318 166.886 506.068 Q166.886 514.795 163.807 519.401 Q160.752 523.984 154.941 523.984 Q149.131 523.984 146.053 519.401 Q142.997 514.795 142.997 506.068 Q142.997 497.318 146.053 492.735 Q149.131 488.128 154.941 488.128 Z" fill="#000000" fill-rule="nonzero" fill-opacity="1"></path><path clip-path="url(#clip930)" d="M166.886 482.23 L190.997 482.23 L190.997 485.427 L166.886 485.427 L166.886 482.23 Z" fill="#000000" fill-rule="nonzero" fill-opacity="1"></path><path clip-path="url(#clip930)" d="M210.708 480.763 Q213.435 481.346 214.958 483.189 Q216.501 485.032 216.501 487.74 Q216.501 491.897 213.642 494.172 Q210.783 496.448 205.517 496.448 Q203.749 496.448 201.868 496.091 Q200.006 495.752 198.013 495.056 L198.013 491.389 Q199.592 492.31 201.473 492.781 Q203.354 493.251 205.404 493.251 Q208.978 493.251 210.84 491.84 Q212.72 490.43 212.72 487.74 Q212.72 485.258 210.971 483.866 Q209.241 482.455 206.138 482.455 L202.865 482.455 L202.865 479.333 L206.288 479.333 Q209.09 479.333 210.576 478.223 Q212.062 477.095 212.062 474.989 Q212.062 472.826 210.52 471.678 Q208.996 470.512 206.138 470.512 Q204.577 470.512 202.79 470.851 Q201.003 471.189 198.859 471.904 L198.859 468.519 Q201.022 467.917 202.903 467.616 Q204.802 467.315 206.476 467.315 Q210.802 467.315 213.322 469.29 Q215.842 471.246 215.842 474.594 Q215.842 476.926 214.507 478.543 Q213.172 480.142 210.708 480.763 Z" fill="#000000" fill-rule="nonzero" fill-opacity="1"></path><path clip-path="url(#clip930)" d="M44.7161 773.137 L47.5806 773.137 L47.5806 800.064 Q53.6281 799.682 56.8109 796.435 Q59.9619 793.157 59.9619 787.332 Q59.9619 783.959 59.1344 780.808 Q58.3069 777.625 56.6518 774.506 L62.1899 774.506 Q63.5267 777.657 64.227 780.967 Q64.9272 784.277 64.9272 787.683 Q64.9272 796.213 59.9619 801.21 Q54.9967 806.175 46.5303 806.175 Q37.7774 806.175 32.6531 801.464 Q27.4968 796.722 27.4968 788.701 Q27.4968 781.508 32.1438 777.338 Q36.7589 773.137 44.7161 773.137 M42.9973 778.993 Q38.1912 779.057 35.3266 781.699 Q32.4621 784.309 32.4621 788.637 Q32.4621 793.539 35.2312 796.499 Q38.0002 799.427 43.0292 799.873 L42.9973 778.993 Z" fill="#000000" fill-rule="nonzero" fill-opacity="1"></path><path clip-path="url(#clip930)" d="M33.8307 742.868 Q33.2578 743.855 33.0032 745.032 Q32.7167 746.178 32.7167 747.579 Q32.7167 752.544 35.9632 755.218 Q39.1779 757.859 45.2253 757.859 L64.0042 757.859 L64.0042 763.748 L28.3562 763.748 L28.3562 757.859 L33.8944 757.859 Q30.6479 756.013 29.0883 753.053 Q27.4968 750.093 27.4968 745.86 Q27.4968 745.255 27.5923 744.523 Q27.656 743.791 27.8151 742.9 L33.8307 742.868 Z" fill="#000000" fill-rule="nonzero" fill-opacity="1"></path><path clip-path="url(#clip930)" d="M33.8307 717.214 Q33.2578 718.201 33.0032 719.379 Q32.7167 720.524 32.7167 721.925 Q32.7167 726.89 35.9632 729.564 Q39.1779 732.205 45.2253 732.205 L64.0042 732.205 L64.0042 738.094 L28.3562 738.094 L28.3562 732.205 L33.8944 732.205 Q30.6479 730.359 29.0883 727.399 Q27.4968 724.439 27.4968 720.206 Q27.4968 719.601 27.5923 718.869 Q27.656 718.137 27.8151 717.246 L33.8307 717.214 Z" fill="#000000" fill-rule="nonzero" fill-opacity="1"></path><path clip-path="url(#clip930)" d="M32.4621 698.69 Q32.4621 703.401 36.1542 706.138 Q39.8145 708.875 46.212 708.875 Q52.6095 708.875 56.3017 706.17 Q59.9619 703.432 59.9619 698.69 Q59.9619 694.011 56.2698 691.274 Q52.5777 688.537 46.212 688.537 Q39.8781 688.537 36.186 691.274 Q32.4621 694.011 32.4621 698.69 M27.4968 698.69 Q27.4968 691.051 32.4621 686.691 Q37.4273 682.33 46.212 682.33 Q54.9649 682.33 59.9619 686.691 Q64.9272 691.051 64.9272 698.69 Q64.9272 706.361 59.9619 710.721 Q54.9649 715.05 46.212 715.05 Q37.4273 715.05 32.4621 710.721 Q27.4968 706.361 27.4968 698.69 Z" fill="#000000" fill-rule="nonzero" fill-opacity="1"></path><path clip-path="url(#clip930)" d="M33.8307 651.966 Q33.2578 652.952 33.0032 654.13 Q32.7167 655.276 32.7167 656.676 Q32.7167 661.642 35.9632 664.315 Q39.1779 666.957 45.2253 666.957 L64.0042 666.957 L64.0042 672.845 L28.3562 672.845 L28.3562 666.957 L33.8944 666.957 Q30.6479 665.111 29.0883 662.151 Q27.4968 659.191 27.4968 654.958 Q27.4968 654.353 27.5923 653.621 Q27.656 652.889 27.8151 651.998 L33.8307 651.966 Z" fill="#000000" fill-rule="nonzero" fill-opacity="1"></path><polyline clip-path="url(#clip932)" style="stroke:#00008b; stroke-linecap:round; stroke-linejoin:round; stroke-width:4; stroke-opacity:1; fill:none" points="508.839,85.838 522.393,573.307 904.281,659.146 942.525,708.369 1010.39,767.868 1100.54,860.825 1214.28,957.948 1352.24,1015.44 1500,1081.61 1661.22,1163.93 1823.03,1248.6 2049.44,1323.58 2170.55,1372.3 "></polyline>
<polyline clip-path="url(#clip932)" style="stroke:#c51b7c; stroke-linecap:round; stroke-linejoin:round; stroke-width:4; stroke-opacity:1; fill:none" points="311.942,88.5017 793.711,91.6896 1285.99,104.036 1773.49,155.552 2277.22,442.312 "></polyline>
<polyline clip-path="url(#clip932)" style="stroke:#de77ad; stroke-linecap:round; stroke-linejoin:round; stroke-width:4; stroke-opacity:1; fill:none" points="314.829,94.2646 803.954,106.303 1286.96,158.359 1785.74,427.122 2288.61,816.229 "></polyline>
<polyline clip-path="url(#clip932)" style="stroke:#f0b6da; stroke-linecap:round; stroke-linejoin:round; stroke-width:4; stroke-opacity:1; fill:none" points="316.605,116.661 796.302,166.187 1289.7,634.759 1788.74,652.729 2293.31,652.728 "></polyline>
<polyline clip-path="url(#clip932)" style="stroke:#fcdfee; stroke-linecap:round; stroke-linejoin:round; stroke-width:4; stroke-opacity:1; fill:none" points="320.259,194.028 801.022,488.124 1290.13,488.984 1788.7,488.984 2026.04,488.984 "></polyline>
<path clip-path="url(#clip930)" d="M1679.58 403.739 L2282.75 403.739 L2282.75 92.6992 L1679.58 92.6992  Z" fill="#ffffff" fill-rule="evenodd" fill-opacity="1"></path>
<polyline clip-path="url(#clip930)" style="stroke:#000000; stroke-linecap:round; stroke-linejoin:round; stroke-width:4; stroke-opacity:1; fill:none" points="1679.58,403.739 2282.75,403.739 2282.75,92.6992 1679.58,92.6992 1679.58,403.739 "></polyline>
<polyline clip-path="url(#clip930)" style="stroke:#00008b; stroke-linecap:round; stroke-linejoin:round; stroke-width:4; stroke-opacity:1; fill:none" points="1702.91,144.539 1842.93,144.539 "></polyline>
<path clip-path="url(#clip930)" d="M1866.27 125.801 L1870.52 125.801 L1870.52 161.819 L1866.27 161.819 L1866.27 125.801 Z" fill="#000000" fill-rule="nonzero" fill-opacity="1"></path><path clip-path="url(#clip930)" d="M1901.61 147.791 L1901.61 149.875 L1882.03 149.875 Q1882.31 154.273 1884.67 156.588 Q1887.05 158.879 1891.29 158.879 Q1893.74 158.879 1896.03 158.278 Q1898.35 157.676 1900.62 156.472 L1900.62 160.5 Q1898.33 161.472 1895.92 161.981 Q1893.51 162.49 1891.03 162.49 Q1884.83 162.49 1881.2 158.879 Q1877.58 155.268 1877.58 149.111 Q1877.58 142.745 1881.01 139.018 Q1884.46 135.268 1890.29 135.268 Q1895.52 135.268 1898.56 138.648 Q1901.61 142.004 1901.61 147.791 M1897.35 146.541 Q1897.31 143.046 1895.39 140.963 Q1893.49 138.879 1890.34 138.879 Q1886.77 138.879 1884.62 140.893 Q1882.49 142.907 1882.17 146.565 L1897.35 146.541 Z" fill="#000000" fill-rule="nonzero" fill-opacity="1"></path><path clip-path="url(#clip930)" d="M1905.55 135.893 L1910.06 135.893 L1918.16 157.653 L1926.26 135.893 L1930.78 135.893 L1921.06 161.819 L1915.27 161.819 L1905.55 135.893 Z" fill="#000000" fill-rule="nonzero" fill-opacity="1"></path><path clip-path="url(#clip930)" d="M1958.83 147.791 L1958.83 149.875 L1939.25 149.875 Q1939.53 154.273 1941.89 156.588 Q1944.27 158.879 1948.51 158.879 Q1950.96 158.879 1953.26 158.278 Q1955.57 157.676 1957.84 156.472 L1957.84 160.5 Q1955.55 161.472 1953.14 161.981 Q1950.73 162.49 1948.26 162.49 Q1942.05 162.49 1938.42 158.879 Q1934.81 155.268 1934.81 149.111 Q1934.81 142.745 1938.23 139.018 Q1941.68 135.268 1947.51 135.268 Q1952.75 135.268 1955.78 138.648 Q1958.83 142.004 1958.83 147.791 M1954.57 146.541 Q1954.53 143.046 1952.61 140.963 Q1950.71 138.879 1947.56 138.879 Q1944 138.879 1941.84 140.893 Q1939.71 142.907 1939.39 146.565 L1954.57 146.541 Z" fill="#000000" fill-rule="nonzero" fill-opacity="1"></path><path clip-path="url(#clip930)" d="M1965.82 125.801 L1970.08 125.801 L1970.08 161.819 L1965.82 161.819 L1965.82 125.801 Z" fill="#000000" fill-rule="nonzero" fill-opacity="1"></path><path clip-path="url(#clip930)" d="M2010.59 136.657 L2010.59 140.685 Q2008.79 139.759 2006.84 139.296 Q2004.9 138.833 2002.82 138.833 Q1999.64 138.833 1998.05 139.805 Q1996.47 140.778 1996.47 142.722 Q1996.47 144.204 1997.61 145.06 Q1998.74 145.893 2002.17 146.657 L2003.63 146.981 Q2008.16 147.954 2010.06 149.736 Q2011.98 151.495 2011.98 154.666 Q2011.98 158.278 2009.11 160.384 Q2006.26 162.49 2001.26 162.49 Q1999.18 162.49 1996.91 162.074 Q1994.67 161.68 1992.17 160.87 L1992.17 156.472 Q1994.53 157.699 1996.82 158.324 Q1999.11 158.926 2001.36 158.926 Q2004.37 158.926 2005.99 157.907 Q2007.61 156.866 2007.61 154.991 Q2007.61 153.254 2006.43 152.328 Q2005.27 151.403 2001.31 150.546 L1999.83 150.199 Q1995.87 149.366 1994.11 147.653 Q1992.35 145.916 1992.35 142.907 Q1992.35 139.25 1994.95 137.259 Q1997.54 135.268 2002.31 135.268 Q2004.67 135.268 2006.75 135.616 Q2008.83 135.963 2010.59 136.657 Z" fill="#000000" fill-rule="nonzero" fill-opacity="1"></path><path clip-path="url(#clip930)" d="M2040.94 147.791 L2040.94 149.875 L2021.36 149.875 Q2021.63 154.273 2024 156.588 Q2026.38 158.879 2030.62 158.879 Q2033.07 158.879 2035.36 158.278 Q2037.68 157.676 2039.94 156.472 L2039.94 160.5 Q2037.65 161.472 2035.25 161.981 Q2032.84 162.49 2030.36 162.49 Q2024.16 162.49 2020.52 158.879 Q2016.91 155.268 2016.91 149.111 Q2016.91 142.745 2020.34 139.018 Q2023.79 135.268 2029.62 135.268 Q2034.85 135.268 2037.88 138.648 Q2040.94 142.004 2040.94 147.791 M2036.68 146.541 Q2036.63 143.046 2034.71 140.963 Q2032.82 138.879 2029.67 138.879 Q2026.1 138.879 2023.95 140.893 Q2021.82 142.907 2021.5 146.565 L2036.68 146.541 Z" fill="#000000" fill-rule="nonzero" fill-opacity="1"></path><path clip-path="url(#clip930)" d="M2052.14 128.532 L2052.14 135.893 L2060.92 135.893 L2060.92 139.204 L2052.14 139.204 L2052.14 153.278 Q2052.14 156.449 2053 157.352 Q2053.88 158.254 2056.54 158.254 L2060.92 158.254 L2060.92 161.819 L2056.54 161.819 Q2051.61 161.819 2049.74 159.99 Q2047.86 158.139 2047.86 153.278 L2047.86 139.204 L2044.74 139.204 L2044.74 135.893 L2047.86 135.893 L2047.86 128.532 L2052.14 128.532 Z" fill="#000000" fill-rule="nonzero" fill-opacity="1"></path><polyline clip-path="url(#clip930)" style="stroke:#c51b7c; stroke-linecap:round; stroke-linejoin:round; stroke-width:4; stroke-opacity:1; fill:none" points="1702.91,196.379 1842.93,196.379 "></polyline>
<path clip-path="url(#clip930)" d="M1870.66 200.719 Q1870.66 205.418 1872.58 208.104 Q1874.53 210.766 1877.91 210.766 Q1881.29 210.766 1883.23 208.104 Q1885.18 205.418 1885.18 200.719 Q1885.18 196.02 1883.23 193.358 Q1881.29 190.673 1877.91 190.673 Q1874.53 190.673 1872.58 193.358 Q1870.66 196.02 1870.66 200.719 M1885.18 209.77 Q1883.83 212.085 1881.77 213.219 Q1879.74 214.33 1876.87 214.33 Q1872.17 214.33 1869.2 210.58 Q1866.27 206.831 1866.27 200.719 Q1866.27 194.608 1869.2 190.858 Q1872.17 187.108 1876.87 187.108 Q1879.74 187.108 1881.77 188.243 Q1883.83 189.354 1885.18 191.669 L1885.18 187.733 L1889.44 187.733 L1889.44 223.52 L1885.18 223.52 L1885.18 209.77 Z" fill="#000000" fill-rule="nonzero" fill-opacity="1"></path><path clip-path="url(#clip930)" d="M1897.77 203.428 L1897.77 187.733 L1902.03 187.733 L1902.03 203.266 Q1902.03 206.946 1903.46 208.798 Q1904.9 210.627 1907.77 210.627 Q1911.22 210.627 1913.21 208.428 Q1915.22 206.229 1915.22 202.432 L1915.22 187.733 L1919.48 187.733 L1919.48 213.659 L1915.22 213.659 L1915.22 209.678 Q1913.67 212.039 1911.61 213.196 Q1909.58 214.33 1906.87 214.33 Q1902.4 214.33 1900.08 211.553 Q1897.77 208.775 1897.77 203.428 M1908.49 187.108 L1908.49 187.108 Z" fill="#000000" fill-rule="nonzero" fill-opacity="1"></path><path clip-path="url(#clip930)" d="M1940.04 200.627 Q1934.88 200.627 1932.89 201.807 Q1930.89 202.988 1930.89 205.835 Q1930.89 208.104 1932.38 209.446 Q1933.88 210.766 1936.45 210.766 Q1939.99 210.766 1942.12 208.266 Q1944.27 205.743 1944.27 201.576 L1944.27 200.627 L1940.04 200.627 M1948.53 198.868 L1948.53 213.659 L1944.27 213.659 L1944.27 209.724 Q1942.82 212.085 1940.64 213.219 Q1938.46 214.33 1935.32 214.33 Q1931.33 214.33 1928.97 212.108 Q1926.64 209.863 1926.64 206.113 Q1926.64 201.738 1929.55 199.516 Q1932.49 197.294 1938.3 197.294 L1944.27 197.294 L1944.27 196.877 Q1944.27 193.937 1942.33 192.34 Q1940.41 190.719 1936.91 190.719 Q1934.69 190.719 1932.58 191.252 Q1930.48 191.784 1928.53 192.849 L1928.53 188.914 Q1930.87 188.011 1933.07 187.571 Q1935.27 187.108 1937.35 187.108 Q1942.98 187.108 1945.76 190.025 Q1948.53 192.942 1948.53 198.868 Z" fill="#000000" fill-rule="nonzero" fill-opacity="1"></path><path clip-path="url(#clip930)" d="M1974.37 191.669 L1974.37 177.641 L1978.63 177.641 L1978.63 213.659 L1974.37 213.659 L1974.37 209.77 Q1973.02 212.085 1970.96 213.219 Q1968.93 214.33 1966.06 214.33 Q1961.36 214.33 1958.39 210.58 Q1955.45 206.831 1955.45 200.719 Q1955.45 194.608 1958.39 190.858 Q1961.36 187.108 1966.06 187.108 Q1968.93 187.108 1970.96 188.243 Q1973.02 189.354 1974.37 191.669 M1959.85 200.719 Q1959.85 205.418 1961.77 208.104 Q1963.72 210.766 1967.1 210.766 Q1970.48 210.766 1972.42 208.104 Q1974.37 205.418 1974.37 200.719 Q1974.37 196.02 1972.42 193.358 Q1970.48 190.673 1967.1 190.673 Q1963.72 190.673 1961.77 193.358 Q1959.85 196.02 1959.85 200.719 Z" fill="#000000" fill-rule="nonzero" fill-opacity="1"></path><path clip-path="url(#clip930)" d="M2024.02 198.011 L2024.02 223.52 L2019.76 223.52 L2019.76 198.15 Q2019.76 194.469 2018.32 192.641 Q2016.89 190.812 2014.02 190.812 Q2010.57 190.812 2008.58 193.011 Q2006.59 195.21 2006.59 199.006 L2006.59 213.659 L2002.31 213.659 L2002.31 187.733 L2006.59 187.733 L2006.59 191.761 Q2008.12 189.423 2010.18 188.266 Q2012.26 187.108 2014.97 187.108 Q2019.44 187.108 2021.73 189.863 Q2024.02 192.641 2024.02 198.011 Z" fill="#000000" fill-rule="nonzero" fill-opacity="1"></path><path clip-path="url(#clip930)" d="M2048.14 192.132 L2077.81 192.132 L2077.81 196.02 L2048.14 196.02 L2048.14 192.132 M2048.14 201.576 L2077.81 201.576 L2077.81 205.511 L2048.14 205.511 L2048.14 201.576 Z" fill="#000000" fill-rule="nonzero" fill-opacity="1"></path><path clip-path="url(#clip930)" d="M2103.79 209.724 L2111.43 209.724 L2111.43 183.358 L2103.12 185.025 L2103.12 180.766 L2111.38 179.099 L2116.06 179.099 L2116.06 209.724 L2123.69 209.724 L2123.69 213.659 L2103.79 213.659 L2103.79 209.724 Z" fill="#000000" fill-rule="nonzero" fill-opacity="1"></path><path clip-path="url(#clip930)" d="M2133.14 207.78 L2138.02 207.78 L2138.02 213.659 L2133.14 213.659 L2133.14 207.78 Z" fill="#000000" fill-rule="nonzero" fill-opacity="1"></path><path clip-path="url(#clip930)" d="M2158.21 182.178 Q2154.6 182.178 2152.77 185.743 Q2150.96 189.284 2150.96 196.414 Q2150.96 203.52 2152.77 207.085 Q2154.6 210.627 2158.21 210.627 Q2161.84 210.627 2163.65 207.085 Q2165.48 203.52 2165.48 196.414 Q2165.48 189.284 2163.65 185.743 Q2161.84 182.178 2158.21 182.178 M2158.21 178.474 Q2164.02 178.474 2167.07 183.081 Q2170.15 187.664 2170.15 196.414 Q2170.15 205.141 2167.07 209.747 Q2164.02 214.33 2158.21 214.33 Q2152.4 214.33 2149.32 209.747 Q2146.26 205.141 2146.26 196.414 Q2146.26 187.664 2149.32 183.081 Q2152.4 178.474 2158.21 178.474 Z" fill="#000000" fill-rule="nonzero" fill-opacity="1"></path><path clip-path="url(#clip930)" d="M2199.94 199.631 L2199.94 201.715 L2180.36 201.715 Q2180.64 206.113 2183 208.428 Q2185.38 210.719 2189.62 210.719 Q2192.07 210.719 2194.37 210.118 Q2196.68 209.516 2198.95 208.312 L2198.95 212.34 Q2196.66 213.312 2194.25 213.821 Q2191.84 214.33 2189.37 214.33 Q2183.16 214.33 2179.53 210.719 Q2175.92 207.108 2175.92 200.951 Q2175.92 194.585 2179.34 190.858 Q2182.79 187.108 2188.62 187.108 Q2193.86 187.108 2196.89 190.488 Q2199.94 193.844 2199.94 199.631 M2195.68 198.381 Q2195.64 194.886 2193.72 192.803 Q2191.82 190.719 2188.67 190.719 Q2185.11 190.719 2182.95 192.733 Q2180.82 194.747 2180.5 198.405 L2195.68 198.381 Z" fill="#000000" fill-rule="nonzero" fill-opacity="1"></path><path clip-path="url(#clip930)" d="M2204.78 198.775 L2217.26 198.775 L2217.26 202.571 L2204.78 202.571 L2204.78 198.775 Z" fill="#000000" fill-rule="nonzero" fill-opacity="1"></path><path clip-path="url(#clip930)" d="M2224.69 179.099 L2243.05 179.099 L2243.05 183.034 L2228.97 183.034 L2228.97 191.507 Q2229.99 191.159 2231.01 190.997 Q2232.03 190.812 2233.05 190.812 Q2238.83 190.812 2242.21 193.983 Q2245.59 197.155 2245.59 202.571 Q2245.59 208.15 2242.12 211.252 Q2238.65 214.33 2232.33 214.33 Q2230.15 214.33 2227.88 213.96 Q2225.64 213.59 2223.23 212.849 L2223.23 208.15 Q2225.31 209.284 2227.54 209.84 Q2229.76 210.395 2232.24 210.395 Q2236.24 210.395 2238.58 208.289 Q2240.92 206.182 2240.92 202.571 Q2240.92 198.96 2238.58 196.854 Q2236.24 194.747 2232.24 194.747 Q2230.36 194.747 2228.49 195.164 Q2226.63 195.581 2224.69 196.46 L2224.69 179.099 Z" fill="#000000" fill-rule="nonzero" fill-opacity="1"></path><polyline clip-path="url(#clip930)" style="stroke:#de77ad; stroke-linecap:round; stroke-linejoin:round; stroke-width:4; stroke-opacity:1; fill:none" points="1702.91,248.219 1842.93,248.219 "></polyline>
<path clip-path="url(#clip930)" d="M1870.66 252.559 Q1870.66 257.258 1872.58 259.944 Q1874.53 262.606 1877.91 262.606 Q1881.29 262.606 1883.23 259.944 Q1885.18 257.258 1885.18 252.559 Q1885.18 247.86 1883.23 245.198 Q1881.29 242.513 1877.91 242.513 Q1874.53 242.513 1872.58 245.198 Q1870.66 247.86 1870.66 252.559 M1885.18 261.61 Q1883.83 263.925 1881.77 265.059 Q1879.74 266.17 1876.87 266.17 Q1872.17 266.17 1869.2 262.42 Q1866.27 258.671 1866.27 252.559 Q1866.27 246.448 1869.2 242.698 Q1872.17 238.948 1876.87 238.948 Q1879.74 238.948 1881.77 240.083 Q1883.83 241.194 1885.18 243.509 L1885.18 239.573 L1889.44 239.573 L1889.44 275.36 L1885.18 275.36 L1885.18 261.61 Z" fill="#000000" fill-rule="nonzero" fill-opacity="1"></path><path clip-path="url(#clip930)" d="M1897.77 255.268 L1897.77 239.573 L1902.03 239.573 L1902.03 255.106 Q1902.03 258.786 1903.46 260.638 Q1904.9 262.467 1907.77 262.467 Q1911.22 262.467 1913.21 260.268 Q1915.22 258.069 1915.22 254.272 L1915.22 239.573 L1919.48 239.573 L1919.48 265.499 L1915.22 265.499 L1915.22 261.518 Q1913.67 263.879 1911.61 265.036 Q1909.58 266.17 1906.87 266.17 Q1902.4 266.17 1900.08 263.393 Q1897.77 260.615 1897.77 255.268 M1908.49 238.948 L1908.49 238.948 Z" fill="#000000" fill-rule="nonzero" fill-opacity="1"></path><path clip-path="url(#clip930)" d="M1940.04 252.467 Q1934.88 252.467 1932.89 253.647 Q1930.89 254.828 1930.89 257.675 Q1930.89 259.944 1932.38 261.286 Q1933.88 262.606 1936.45 262.606 Q1939.99 262.606 1942.12 260.106 Q1944.27 257.583 1944.27 253.416 L1944.27 252.467 L1940.04 252.467 M1948.53 250.708 L1948.53 265.499 L1944.27 265.499 L1944.27 261.564 Q1942.82 263.925 1940.64 265.059 Q1938.46 266.17 1935.32 266.17 Q1931.33 266.17 1928.97 263.948 Q1926.64 261.703 1926.64 257.953 Q1926.64 253.578 1929.55 251.356 Q1932.49 249.134 1938.3 249.134 L1944.27 249.134 L1944.27 248.717 Q1944.27 245.777 1942.33 244.18 Q1940.41 242.559 1936.91 242.559 Q1934.69 242.559 1932.58 243.092 Q1930.48 243.624 1928.53 244.689 L1928.53 240.754 Q1930.87 239.851 1933.07 239.411 Q1935.27 238.948 1937.35 238.948 Q1942.98 238.948 1945.76 241.865 Q1948.53 244.782 1948.53 250.708 Z" fill="#000000" fill-rule="nonzero" fill-opacity="1"></path><path clip-path="url(#clip930)" d="M1974.37 243.509 L1974.37 229.481 L1978.63 229.481 L1978.63 265.499 L1974.37 265.499 L1974.37 261.61 Q1973.02 263.925 1970.96 265.059 Q1968.93 266.17 1966.06 266.17 Q1961.36 266.17 1958.39 262.42 Q1955.45 258.671 1955.45 252.559 Q1955.45 246.448 1958.39 242.698 Q1961.36 238.948 1966.06 238.948 Q1968.93 238.948 1970.96 240.083 Q1973.02 241.194 1974.37 243.509 M1959.85 252.559 Q1959.85 257.258 1961.77 259.944 Q1963.72 262.606 1967.1 262.606 Q1970.48 262.606 1972.42 259.944 Q1974.37 257.258 1974.37 252.559 Q1974.37 247.86 1972.42 245.198 Q1970.48 242.513 1967.1 242.513 Q1963.72 242.513 1961.77 245.198 Q1959.85 247.86 1959.85 252.559 Z" fill="#000000" fill-rule="nonzero" fill-opacity="1"></path><path clip-path="url(#clip930)" d="M2024.02 249.851 L2024.02 275.36 L2019.76 275.36 L2019.76 249.99 Q2019.76 246.309 2018.32 244.481 Q2016.89 242.652 2014.02 242.652 Q2010.57 242.652 2008.58 244.851 Q2006.59 247.05 2006.59 250.846 L2006.59 265.499 L2002.31 265.499 L2002.31 239.573 L2006.59 239.573 L2006.59 243.601 Q2008.12 241.263 2010.18 240.106 Q2012.26 238.948 2014.97 238.948 Q2019.44 238.948 2021.73 241.703 Q2024.02 244.481 2024.02 249.851 Z" fill="#000000" fill-rule="nonzero" fill-opacity="1"></path><path clip-path="url(#clip930)" d="M2048.14 243.972 L2077.81 243.972 L2077.81 247.86 L2048.14 247.86 L2048.14 243.972 M2048.14 253.416 L2077.81 253.416 L2077.81 257.351 L2048.14 257.351 L2048.14 253.416 Z" fill="#000000" fill-rule="nonzero" fill-opacity="1"></path><path clip-path="url(#clip930)" d="M2112.98 234.018 Q2109.37 234.018 2107.54 237.583 Q2105.73 241.124 2105.73 248.254 Q2105.73 255.36 2107.54 258.925 Q2109.37 262.467 2112.98 262.467 Q2116.61 262.467 2118.42 258.925 Q2120.25 255.36 2120.25 248.254 Q2120.25 241.124 2118.42 237.583 Q2116.61 234.018 2112.98 234.018 M2112.98 230.314 Q2118.79 230.314 2121.84 234.921 Q2124.92 239.504 2124.92 248.254 Q2124.92 256.981 2121.84 261.587 Q2118.79 266.17 2112.98 266.17 Q2107.17 266.17 2104.09 261.587 Q2101.03 256.981 2101.03 248.254 Q2101.03 239.504 2104.09 234.921 Q2107.17 230.314 2112.98 230.314 Z" fill="#000000" fill-rule="nonzero" fill-opacity="1"></path><path clip-path="url(#clip930)" d="M2133.14 259.62 L2138.02 259.62 L2138.02 265.499 L2133.14 265.499 L2133.14 259.62 Z" fill="#000000" fill-rule="nonzero" fill-opacity="1"></path><path clip-path="url(#clip930)" d="M2158.21 234.018 Q2154.6 234.018 2152.77 237.583 Q2150.96 241.124 2150.96 248.254 Q2150.96 255.36 2152.77 258.925 Q2154.6 262.467 2158.21 262.467 Q2161.84 262.467 2163.65 258.925 Q2165.48 255.36 2165.48 248.254 Q2165.48 241.124 2163.65 237.583 Q2161.84 234.018 2158.21 234.018 M2158.21 230.314 Q2164.02 230.314 2167.07 234.921 Q2170.15 239.504 2170.15 248.254 Q2170.15 256.981 2167.07 261.587 Q2164.02 266.17 2158.21 266.17 Q2152.4 266.17 2149.32 261.587 Q2146.26 256.981 2146.26 248.254 Q2146.26 239.504 2149.32 234.921 Q2152.4 230.314 2158.21 230.314 Z" fill="#000000" fill-rule="nonzero" fill-opacity="1"></path><path clip-path="url(#clip930)" d="M2188.37 234.018 Q2184.76 234.018 2182.93 237.583 Q2181.12 241.124 2181.12 248.254 Q2181.12 255.36 2182.93 258.925 Q2184.76 262.467 2188.37 262.467 Q2192 262.467 2193.81 258.925 Q2195.64 255.36 2195.64 248.254 Q2195.64 241.124 2193.81 237.583 Q2192 234.018 2188.37 234.018 M2188.37 230.314 Q2194.18 230.314 2197.24 234.921 Q2200.31 239.504 2200.31 248.254 Q2200.31 256.981 2197.24 261.587 Q2194.18 266.17 2188.37 266.17 Q2182.56 266.17 2179.48 261.587 Q2176.43 256.981 2176.43 248.254 Q2176.43 239.504 2179.48 234.921 Q2182.56 230.314 2188.37 230.314 Z" fill="#000000" fill-rule="nonzero" fill-opacity="1"></path><path clip-path="url(#clip930)" d="M2218.53 234.018 Q2214.92 234.018 2213.09 237.583 Q2211.29 241.124 2211.29 248.254 Q2211.29 255.36 2213.09 258.925 Q2214.92 262.467 2218.53 262.467 Q2222.17 262.467 2223.97 258.925 Q2225.8 255.36 2225.8 248.254 Q2225.8 241.124 2223.97 237.583 Q2222.17 234.018 2218.53 234.018 M2218.53 230.314 Q2224.34 230.314 2227.4 234.921 Q2230.48 239.504 2230.48 248.254 Q2230.48 256.981 2227.4 261.587 Q2224.34 266.17 2218.53 266.17 Q2212.72 266.17 2209.64 261.587 Q2206.59 256.981 2206.59 248.254 Q2206.59 239.504 2209.64 234.921 Q2212.72 230.314 2218.53 230.314 Z" fill="#000000" fill-rule="nonzero" fill-opacity="1"></path><path clip-path="url(#clip930)" d="M2239.5 261.564 L2247.14 261.564 L2247.14 235.198 L2238.83 236.865 L2238.83 232.606 L2247.1 230.939 L2251.77 230.939 L2251.77 261.564 L2259.41 261.564 L2259.41 265.499 L2239.5 265.499 L2239.5 261.564 Z" fill="#000000" fill-rule="nonzero" fill-opacity="1"></path><polyline clip-path="url(#clip930)" style="stroke:#f0b6da; stroke-linecap:round; stroke-linejoin:round; stroke-width:4; stroke-opacity:1; fill:none" points="1702.91,300.059 1842.93,300.059 "></polyline>
<path clip-path="url(#clip930)" d="M1870.66 304.399 Q1870.66 309.098 1872.58 311.784 Q1874.53 314.446 1877.91 314.446 Q1881.29 314.446 1883.23 311.784 Q1885.18 309.098 1885.18 304.399 Q1885.18 299.7 1883.23 297.038 Q1881.29 294.353 1877.91 294.353 Q1874.53 294.353 1872.58 297.038 Q1870.66 299.7 1870.66 304.399 M1885.18 313.45 Q1883.83 315.765 1881.77 316.899 Q1879.74 318.01 1876.87 318.01 Q1872.17 318.01 1869.2 314.26 Q1866.27 310.511 1866.27 304.399 Q1866.27 298.288 1869.2 294.538 Q1872.17 290.788 1876.87 290.788 Q1879.74 290.788 1881.77 291.923 Q1883.83 293.034 1885.18 295.349 L1885.18 291.413 L1889.44 291.413 L1889.44 327.2 L1885.18 327.2 L1885.18 313.45 Z" fill="#000000" fill-rule="nonzero" fill-opacity="1"></path><path clip-path="url(#clip930)" d="M1897.77 307.108 L1897.77 291.413 L1902.03 291.413 L1902.03 306.946 Q1902.03 310.626 1903.46 312.478 Q1904.9 314.307 1907.77 314.307 Q1911.22 314.307 1913.21 312.108 Q1915.22 309.909 1915.22 306.112 L1915.22 291.413 L1919.48 291.413 L1919.48 317.339 L1915.22 317.339 L1915.22 313.358 Q1913.67 315.719 1911.61 316.876 Q1909.58 318.01 1906.87 318.01 Q1902.4 318.01 1900.08 315.233 Q1897.77 312.455 1897.77 307.108 M1908.49 290.788 L1908.49 290.788 Z" fill="#000000" fill-rule="nonzero" fill-opacity="1"></path><path clip-path="url(#clip930)" d="M1940.04 304.307 Q1934.88 304.307 1932.89 305.487 Q1930.89 306.668 1930.89 309.515 Q1930.89 311.784 1932.38 313.126 Q1933.88 314.446 1936.45 314.446 Q1939.99 314.446 1942.12 311.946 Q1944.27 309.423 1944.27 305.256 L1944.27 304.307 L1940.04 304.307 M1948.53 302.548 L1948.53 317.339 L1944.27 317.339 L1944.27 313.404 Q1942.82 315.765 1940.64 316.899 Q1938.46 318.01 1935.32 318.01 Q1931.33 318.01 1928.97 315.788 Q1926.64 313.543 1926.64 309.793 Q1926.64 305.418 1929.55 303.196 Q1932.49 300.974 1938.3 300.974 L1944.27 300.974 L1944.27 300.557 Q1944.27 297.617 1942.33 296.02 Q1940.41 294.399 1936.91 294.399 Q1934.69 294.399 1932.58 294.932 Q1930.48 295.464 1928.53 296.529 L1928.53 292.594 Q1930.87 291.691 1933.07 291.251 Q1935.27 290.788 1937.35 290.788 Q1942.98 290.788 1945.76 293.705 Q1948.53 296.622 1948.53 302.548 Z" fill="#000000" fill-rule="nonzero" fill-opacity="1"></path><path clip-path="url(#clip930)" d="M1974.37 295.349 L1974.37 281.321 L1978.63 281.321 L1978.63 317.339 L1974.37 317.339 L1974.37 313.45 Q1973.02 315.765 1970.96 316.899 Q1968.93 318.01 1966.06 318.01 Q1961.36 318.01 1958.39 314.26 Q1955.45 310.511 1955.45 304.399 Q1955.45 298.288 1958.39 294.538 Q1961.36 290.788 1966.06 290.788 Q1968.93 290.788 1970.96 291.923 Q1973.02 293.034 1974.37 295.349 M1959.85 304.399 Q1959.85 309.098 1961.77 311.784 Q1963.72 314.446 1967.1 314.446 Q1970.48 314.446 1972.42 311.784 Q1974.37 309.098 1974.37 304.399 Q1974.37 299.7 1972.42 297.038 Q1970.48 294.353 1967.1 294.353 Q1963.72 294.353 1961.77 297.038 Q1959.85 299.7 1959.85 304.399 Z" fill="#000000" fill-rule="nonzero" fill-opacity="1"></path><path clip-path="url(#clip930)" d="M2024.02 301.691 L2024.02 327.2 L2019.76 327.2 L2019.76 301.83 Q2019.76 298.149 2018.32 296.321 Q2016.89 294.492 2014.02 294.492 Q2010.57 294.492 2008.58 296.691 Q2006.59 298.89 2006.59 302.686 L2006.59 317.339 L2002.31 317.339 L2002.31 291.413 L2006.59 291.413 L2006.59 295.441 Q2008.12 293.103 2010.18 291.946 Q2012.26 290.788 2014.97 290.788 Q2019.44 290.788 2021.73 293.543 Q2024.02 296.321 2024.02 301.691 Z" fill="#000000" fill-rule="nonzero" fill-opacity="1"></path><path clip-path="url(#clip930)" d="M2048.14 295.812 L2077.81 295.812 L2077.81 299.7 L2048.14 299.7 L2048.14 295.812 M2048.14 305.256 L2077.81 305.256 L2077.81 309.191 L2048.14 309.191 L2048.14 305.256 Z" fill="#000000" fill-rule="nonzero" fill-opacity="1"></path><path clip-path="url(#clip930)" d="M2112.98 285.858 Q2109.37 285.858 2107.54 289.423 Q2105.73 292.964 2105.73 300.094 Q2105.73 307.2 2107.54 310.765 Q2109.37 314.307 2112.98 314.307 Q2116.61 314.307 2118.42 310.765 Q2120.25 307.2 2120.25 300.094 Q2120.25 292.964 2118.42 289.423 Q2116.61 285.858 2112.98 285.858 M2112.98 282.154 Q2118.79 282.154 2121.84 286.761 Q2124.92 291.344 2124.92 300.094 Q2124.92 308.821 2121.84 313.427 Q2118.79 318.01 2112.98 318.01 Q2107.17 318.01 2104.09 313.427 Q2101.03 308.821 2101.03 300.094 Q2101.03 291.344 2104.09 286.761 Q2107.17 282.154 2112.98 282.154 Z" fill="#000000" fill-rule="nonzero" fill-opacity="1"></path><path clip-path="url(#clip930)" d="M2133.14 311.46 L2138.02 311.46 L2138.02 317.339 L2133.14 317.339 L2133.14 311.46 Z" fill="#000000" fill-rule="nonzero" fill-opacity="1"></path><path clip-path="url(#clip930)" d="M2158.21 285.858 Q2154.6 285.858 2152.77 289.423 Q2150.96 292.964 2150.96 300.094 Q2150.96 307.2 2152.77 310.765 Q2154.6 314.307 2158.21 314.307 Q2161.84 314.307 2163.65 310.765 Q2165.48 307.2 2165.48 300.094 Q2165.48 292.964 2163.65 289.423 Q2161.84 285.858 2158.21 285.858 M2158.21 282.154 Q2164.02 282.154 2167.07 286.761 Q2170.15 291.344 2170.15 300.094 Q2170.15 308.821 2167.07 313.427 Q2164.02 318.01 2158.21 318.01 Q2152.4 318.01 2149.32 313.427 Q2146.26 308.821 2146.26 300.094 Q2146.26 291.344 2149.32 286.761 Q2152.4 282.154 2158.21 282.154 Z" fill="#000000" fill-rule="nonzero" fill-opacity="1"></path><path clip-path="url(#clip930)" d="M2188.37 285.858 Q2184.76 285.858 2182.93 289.423 Q2181.12 292.964 2181.12 300.094 Q2181.12 307.2 2182.93 310.765 Q2184.76 314.307 2188.37 314.307 Q2192 314.307 2193.81 310.765 Q2195.64 307.2 2195.64 300.094 Q2195.64 292.964 2193.81 289.423 Q2192 285.858 2188.37 285.858 M2188.37 282.154 Q2194.18 282.154 2197.24 286.761 Q2200.31 291.344 2200.31 300.094 Q2200.31 308.821 2197.24 313.427 Q2194.18 318.01 2188.37 318.01 Q2182.56 318.01 2179.48 313.427 Q2176.43 308.821 2176.43 300.094 Q2176.43 291.344 2179.48 286.761 Q2182.56 282.154 2188.37 282.154 Z" fill="#000000" fill-rule="nonzero" fill-opacity="1"></path><path clip-path="url(#clip930)" d="M2209.34 313.404 L2216.98 313.404 L2216.98 287.038 L2208.67 288.705 L2208.67 284.446 L2216.93 282.779 L2221.61 282.779 L2221.61 313.404 L2229.25 313.404 L2229.25 317.339 L2209.34 317.339 L2209.34 313.404 Z" fill="#000000" fill-rule="nonzero" fill-opacity="1"></path><polyline clip-path="url(#clip930)" style="stroke:#fcdfee; stroke-linecap:round; stroke-linejoin:round; stroke-width:4; stroke-opacity:1; fill:none" points="1702.91,351.899 1842.93,351.899 "></polyline>
<path clip-path="url(#clip930)" d="M1870.66 356.239 Q1870.66 360.938 1872.58 363.624 Q1874.53 366.286 1877.91 366.286 Q1881.29 366.286 1883.23 363.624 Q1885.18 360.938 1885.18 356.239 Q1885.18 351.54 1883.23 348.878 Q1881.29 346.193 1877.91 346.193 Q1874.53 346.193 1872.58 348.878 Q1870.66 351.54 1870.66 356.239 M1885.18 365.29 Q1883.83 367.605 1881.77 368.739 Q1879.74 369.85 1876.87 369.85 Q1872.17 369.85 1869.2 366.1 Q1866.27 362.351 1866.27 356.239 Q1866.27 350.128 1869.2 346.378 Q1872.17 342.628 1876.87 342.628 Q1879.74 342.628 1881.77 343.763 Q1883.83 344.874 1885.18 347.189 L1885.18 343.253 L1889.44 343.253 L1889.44 379.04 L1885.18 379.04 L1885.18 365.29 Z" fill="#000000" fill-rule="nonzero" fill-opacity="1"></path><path clip-path="url(#clip930)" d="M1897.77 358.948 L1897.77 343.253 L1902.03 343.253 L1902.03 358.786 Q1902.03 362.466 1903.46 364.318 Q1904.9 366.147 1907.77 366.147 Q1911.22 366.147 1913.21 363.948 Q1915.22 361.749 1915.22 357.952 L1915.22 343.253 L1919.48 343.253 L1919.48 369.179 L1915.22 369.179 L1915.22 365.198 Q1913.67 367.559 1911.61 368.716 Q1909.58 369.85 1906.87 369.85 Q1902.4 369.85 1900.08 367.073 Q1897.77 364.295 1897.77 358.948 M1908.49 342.628 L1908.49 342.628 Z" fill="#000000" fill-rule="nonzero" fill-opacity="1"></path><path clip-path="url(#clip930)" d="M1940.04 356.147 Q1934.88 356.147 1932.89 357.327 Q1930.89 358.508 1930.89 361.355 Q1930.89 363.624 1932.38 364.966 Q1933.88 366.286 1936.45 366.286 Q1939.99 366.286 1942.12 363.786 Q1944.27 361.263 1944.27 357.096 L1944.27 356.147 L1940.04 356.147 M1948.53 354.388 L1948.53 369.179 L1944.27 369.179 L1944.27 365.244 Q1942.82 367.605 1940.64 368.739 Q1938.46 369.85 1935.32 369.85 Q1931.33 369.85 1928.97 367.628 Q1926.64 365.383 1926.64 361.633 Q1926.64 357.258 1929.55 355.036 Q1932.49 352.814 1938.3 352.814 L1944.27 352.814 L1944.27 352.397 Q1944.27 349.457 1942.33 347.86 Q1940.41 346.239 1936.91 346.239 Q1934.69 346.239 1932.58 346.772 Q1930.48 347.304 1928.53 348.369 L1928.53 344.434 Q1930.87 343.531 1933.07 343.091 Q1935.27 342.628 1937.35 342.628 Q1942.98 342.628 1945.76 345.545 Q1948.53 348.462 1948.53 354.388 Z" fill="#000000" fill-rule="nonzero" fill-opacity="1"></path><path clip-path="url(#clip930)" d="M1974.37 347.189 L1974.37 333.161 L1978.63 333.161 L1978.63 369.179 L1974.37 369.179 L1974.37 365.29 Q1973.02 367.605 1970.96 368.739 Q1968.93 369.85 1966.06 369.85 Q1961.36 369.85 1958.39 366.1 Q1955.45 362.351 1955.45 356.239 Q1955.45 350.128 1958.39 346.378 Q1961.36 342.628 1966.06 342.628 Q1968.93 342.628 1970.96 343.763 Q1973.02 344.874 1974.37 347.189 M1959.85 356.239 Q1959.85 360.938 1961.77 363.624 Q1963.72 366.286 1967.1 366.286 Q1970.48 366.286 1972.42 363.624 Q1974.37 360.938 1974.37 356.239 Q1974.37 351.54 1972.42 348.878 Q1970.48 346.193 1967.1 346.193 Q1963.72 346.193 1961.77 348.878 Q1959.85 351.54 1959.85 356.239 Z" fill="#000000" fill-rule="nonzero" fill-opacity="1"></path><path clip-path="url(#clip930)" d="M2024.02 353.531 L2024.02 379.04 L2019.76 379.04 L2019.76 353.67 Q2019.76 349.989 2018.32 348.161 Q2016.89 346.332 2014.02 346.332 Q2010.57 346.332 2008.58 348.531 Q2006.59 350.73 2006.59 354.526 L2006.59 369.179 L2002.31 369.179 L2002.31 343.253 L2006.59 343.253 L2006.59 347.281 Q2008.12 344.943 2010.18 343.786 Q2012.26 342.628 2014.97 342.628 Q2019.44 342.628 2021.73 345.383 Q2024.02 348.161 2024.02 353.531 Z" fill="#000000" fill-rule="nonzero" fill-opacity="1"></path><path clip-path="url(#clip930)" d="M2048.14 347.652 L2077.81 347.652 L2077.81 351.54 L2048.14 351.54 L2048.14 347.652 M2048.14 357.096 L2077.81 357.096 L2077.81 361.031 L2048.14 361.031 L2048.14 357.096 Z" fill="#000000" fill-rule="nonzero" fill-opacity="1"></path><path clip-path="url(#clip930)" d="M2112.98 337.698 Q2109.37 337.698 2107.54 341.263 Q2105.73 344.804 2105.73 351.934 Q2105.73 359.04 2107.54 362.605 Q2109.37 366.147 2112.98 366.147 Q2116.61 366.147 2118.42 362.605 Q2120.25 359.04 2120.25 351.934 Q2120.25 344.804 2118.42 341.263 Q2116.61 337.698 2112.98 337.698 M2112.98 333.994 Q2118.79 333.994 2121.84 338.601 Q2124.92 343.184 2124.92 351.934 Q2124.92 360.661 2121.84 365.267 Q2118.79 369.85 2112.98 369.85 Q2107.17 369.85 2104.09 365.267 Q2101.03 360.661 2101.03 351.934 Q2101.03 343.184 2104.09 338.601 Q2107.17 333.994 2112.98 333.994 Z" fill="#000000" fill-rule="nonzero" fill-opacity="1"></path><path clip-path="url(#clip930)" d="M2133.14 363.3 L2138.02 363.3 L2138.02 369.179 L2133.14 369.179 L2133.14 363.3 Z" fill="#000000" fill-rule="nonzero" fill-opacity="1"></path><path clip-path="url(#clip930)" d="M2158.21 337.698 Q2154.6 337.698 2152.77 341.263 Q2150.96 344.804 2150.96 351.934 Q2150.96 359.04 2152.77 362.605 Q2154.6 366.147 2158.21 366.147 Q2161.84 366.147 2163.65 362.605 Q2165.48 359.04 2165.48 351.934 Q2165.48 344.804 2163.65 341.263 Q2161.84 337.698 2158.21 337.698 M2158.21 333.994 Q2164.02 333.994 2167.07 338.601 Q2170.15 343.184 2170.15 351.934 Q2170.15 360.661 2167.07 365.267 Q2164.02 369.85 2158.21 369.85 Q2152.4 369.85 2149.32 365.267 Q2146.26 360.661 2146.26 351.934 Q2146.26 343.184 2149.32 338.601 Q2152.4 333.994 2158.21 333.994 Z" fill="#000000" fill-rule="nonzero" fill-opacity="1"></path><path clip-path="url(#clip930)" d="M2179.18 365.244 L2186.82 365.244 L2186.82 338.878 L2178.51 340.545 L2178.51 336.286 L2186.77 334.619 L2191.45 334.619 L2191.45 365.244 L2199.09 365.244 L2199.09 369.179 L2179.18 369.179 L2179.18 365.244 Z" fill="#000000" fill-rule="nonzero" fill-opacity="1"></path></svg>