<svg xmlns="http://www.w3.org/2000/svg" xmlns:xlink="http://www.w3.org/1999/xlink" width="600" height="400" viewBox="0 0 2400 1600">
<defs>
  <clipPath id="clip820">
    <rect x="0" y="0" width="2400" height="1600"></rect>
  </clipPath>
</defs>
<path clip-path="url(#clip820)" d="M0 1600 L2400 1600 L2400 0 L0 0  Z" fill="#ffffff" fill-rule="evenodd" fill-opacity="1"></path>
<defs>
  <clipPath id="clip821">
    <rect x="480" y="0" width="1681" height="1600"></rect>
  </clipPath>
</defs>
<path clip-path="url(#clip820)" d="M252.764 1410.9 L2352.76 1410.9 L2352.76 47.2441 L252.764 47.2441  Z" fill="#ffffff" fill-rule="evenodd" fill-opacity="1"></path>
<defs>
  <clipPath id="clip822">
    <rect x="252" y="47" width="2101" height="1365"></rect>
  </clipPath>
</defs>
<polyline clip-path="url(#clip822)" style="stroke:#000000; stroke-linecap:round; stroke-linejoin:round; stroke-width:2; stroke-opacity:0.1; fill:none" points="276.793,1410.9 276.793,47.2441 "></polyline>
<polyline clip-path="url(#clip822)" style="stroke:#000000; stroke-linecap:round; stroke-linejoin:round; stroke-width:2; stroke-opacity:0.1; fill:none" points="1001.4,1410.9 1001.4,47.2441 "></polyline>
<polyline clip-path="url(#clip822)" style="stroke:#000000; stroke-linecap:round; stroke-linejoin:round; stroke-width:2; stroke-opacity:0.1; fill:none" points="1726,1410.9 1726,47.2441 "></polyline>
<polyline clip-path="url(#clip822)" style="stroke:#000000; stroke-linecap:round; stroke-linejoin:round; stroke-width:2; stroke-opacity:0.1; fill:none" points="252.764,879.659 2352.76,879.659 "></polyline>
<polyline clip-path="url(#clip822)" style="stroke:#000000; stroke-linecap:round; stroke-linejoin:round; stroke-width:2; stroke-opacity:0.1; fill:none" points="252.764,256.817 2352.76,256.817 "></polyline>
<polyline clip-path="url(#clip820)" style="stroke:#000000; stroke-linecap:round; stroke-linejoin:round; stroke-width:4; stroke-opacity:1; fill:none" points="252.764,1410.9 2352.76,1410.9 "></polyline>
<polyline clip-path="url(#clip820)" style="stroke:#000000; stroke-linecap:round; stroke-linejoin:round; stroke-width:4; stroke-opacity:1; fill:none" points="276.793,1410.9 276.793,1392 "></polyline>
<polyline clip-path="url(#clip820)" style="stroke:#000000; stroke-linecap:round; stroke-linejoin:round; stroke-width:4; stroke-opacity:1; fill:none" points="1001.4,1410.9 1001.4,1392 "></polyline>
<polyline clip-path="url(#clip820)" style="stroke:#000000; stroke-linecap:round; stroke-linejoin:round; stroke-width:4; stroke-opacity:1; fill:none" points="1726,1410.9 1726,1392 "></polyline>
<path clip-path="url(#clip820)" d="M226.673 1485.02 L234.312 1485.02 L234.312 1458.66 L226.002 1460.32 L226.002 1456.06 L234.265 1454.4 L238.941 1454.4 L238.941 1485.02 L246.58 1485.02 L246.58 1488.96 L226.673 1488.96 L226.673 1485.02 Z" fill="#000000" fill-rule="nonzero" fill-opacity="1"></path><path clip-path="url(#clip820)" d="M266.024 1457.48 Q262.413 1457.48 260.585 1461.04 Q258.779 1464.58 258.779 1471.71 Q258.779 1478.82 260.585 1482.38 Q262.413 1485.92 266.024 1485.92 Q269.659 1485.92 271.464 1482.38 Q273.293 1478.82 273.293 1471.71 Q273.293 1464.58 271.464 1461.04 Q269.659 1457.48 266.024 1457.48 M266.024 1453.77 Q271.835 1453.77 274.89 1458.38 Q277.969 1462.96 277.969 1471.71 Q277.969 1480.44 274.89 1485.04 Q271.835 1489.63 266.024 1489.63 Q260.214 1489.63 257.136 1485.04 Q254.08 1480.44 254.08 1471.71 Q254.08 1462.96 257.136 1458.38 Q260.214 1453.77 266.024 1453.77 Z" fill="#000000" fill-rule="nonzero" fill-opacity="1"></path><path clip-path="url(#clip820)" d="M277.969 1447.87 L302.08 1447.87 L302.08 1451.07 L277.969 1451.07 L277.969 1447.87 Z" fill="#000000" fill-rule="nonzero" fill-opacity="1"></path><path clip-path="url(#clip820)" d="M321.791 1446.41 Q324.518 1446.99 326.041 1448.83 Q327.584 1450.68 327.584 1453.38 Q327.584 1457.54 324.725 1459.82 Q321.866 1462.09 316.6 1462.09 Q314.832 1462.09 312.951 1461.73 Q311.089 1461.4 309.096 1460.7 L309.096 1457.03 Q310.676 1457.95 312.556 1458.42 Q314.437 1458.89 316.487 1458.89 Q320.061 1458.89 321.923 1457.48 Q323.803 1456.07 323.803 1453.38 Q323.803 1450.9 322.054 1449.51 Q320.324 1448.1 317.221 1448.1 L313.948 1448.1 L313.948 1444.98 L317.371 1444.98 Q320.173 1444.98 321.659 1443.87 Q323.145 1442.74 323.145 1440.63 Q323.145 1438.47 321.603 1437.32 Q320.079 1436.16 317.221 1436.16 Q315.66 1436.16 313.873 1436.49 Q312.086 1436.83 309.942 1437.55 L309.942 1434.16 Q312.105 1433.56 313.986 1433.26 Q315.885 1432.96 317.559 1432.96 Q321.885 1432.96 324.405 1434.93 Q326.925 1436.89 326.925 1440.24 Q326.925 1442.57 325.59 1444.19 Q324.255 1445.79 321.791 1446.41 Z" fill="#000000" fill-rule="nonzero" fill-opacity="1"></path><path clip-path="url(#clip820)" d="M951.664 1485.02 L959.303 1485.02 L959.303 1458.66 L950.993 1460.32 L950.993 1456.06 L959.257 1454.4 L963.933 1454.4 L963.933 1485.02 L971.572 1485.02 L971.572 1488.96 L951.664 1488.96 L951.664 1485.02 Z" fill="#000000" fill-rule="nonzero" fill-opacity="1"></path><path clip-path="url(#clip820)" d="M991.016 1457.48 Q987.405 1457.48 985.576 1461.04 Q983.771 1464.58 983.771 1471.71 Q983.771 1478.82 985.576 1482.38 Q987.405 1485.92 991.016 1485.92 Q994.65 1485.92 996.456 1482.38 Q998.285 1478.82 998.285 1471.71 Q998.285 1464.58 996.456 1461.04 Q994.65 1457.48 991.016 1457.48 M991.016 1453.77 Q996.826 1453.77 999.882 1458.38 Q1002.96 1462.96 1002.96 1471.71 Q1002.96 1480.44 999.882 1485.04 Q996.826 1489.63 991.016 1489.63 Q985.206 1489.63 982.127 1485.04 Q979.072 1480.44 979.072 1471.71 Q979.072 1462.96 982.127 1458.38 Q985.206 1453.77 991.016 1453.77 Z" fill="#000000" fill-rule="nonzero" fill-opacity="1"></path><path clip-path="url(#clip820)" d="M1002.96 1447.87 L1027.07 1447.87 L1027.07 1451.07 L1002.96 1451.07 L1002.96 1447.87 Z" fill="#000000" fill-rule="nonzero" fill-opacity="1"></path><path clip-path="url(#clip820)" d="M1038.54 1458.35 L1051.8 1458.35 L1051.8 1461.55 L1033.97 1461.55 L1033.97 1458.35 Q1036.14 1456.11 1039.86 1452.35 Q1043.6 1448.57 1044.56 1447.48 Q1046.39 1445.43 1047.1 1444.02 Q1047.84 1442.59 1047.84 1441.22 Q1047.84 1438.98 1046.26 1437.57 Q1044.69 1436.16 1042.17 1436.16 Q1040.39 1436.16 1038.39 1436.78 Q1036.42 1437.4 1034.16 1438.66 L1034.16 1434.82 Q1036.46 1433.9 1038.45 1433.43 Q1040.44 1432.96 1042.1 1432.96 Q1046.46 1432.96 1049.06 1435.14 Q1051.65 1437.32 1051.65 1440.97 Q1051.65 1442.7 1051 1444.26 Q1050.36 1445.8 1048.64 1447.91 Q1048.17 1448.46 1045.65 1451.07 Q1043.13 1453.67 1038.54 1458.35 Z" fill="#000000" fill-rule="nonzero" fill-opacity="1"></path><path clip-path="url(#clip820)" d="M1676.12 1485.02 L1683.76 1485.02 L1683.76 1458.66 L1675.45 1460.32 L1675.45 1456.06 L1683.71 1454.4 L1688.39 1454.4 L1688.39 1485.02 L1696.03 1485.02 L1696.03 1488.96 L1676.12 1488.96 L1676.12 1485.02 Z" fill="#000000" fill-rule="nonzero" fill-opacity="1"></path><path clip-path="url(#clip820)" d="M1715.47 1457.48 Q1711.86 1457.48 1710.03 1461.04 Q1708.23 1464.58 1708.23 1471.71 Q1708.23 1478.82 1710.03 1482.38 Q1711.86 1485.92 1715.47 1485.92 Q1719.11 1485.92 1720.91 1482.38 Q1722.74 1478.82 1722.74 1471.71 Q1722.74 1464.58 1720.91 1461.04 Q1719.11 1457.48 1715.47 1457.48 M1715.47 1453.77 Q1721.28 1453.77 1724.34 1458.38 Q1727.42 1462.96 1727.42 1471.71 Q1727.42 1480.44 1724.34 1485.04 Q1721.28 1489.63 1715.47 1489.63 Q1709.66 1489.63 1706.58 1485.04 Q1703.53 1480.44 1703.53 1471.71 Q1703.53 1462.96 1706.58 1458.38 Q1709.66 1453.77 1715.47 1453.77 Z" fill="#000000" fill-rule="nonzero" fill-opacity="1"></path><path clip-path="url(#clip820)" d="M1727.42 1447.87 L1751.53 1447.87 L1751.53 1451.07 L1727.42 1451.07 L1727.42 1447.87 Z" fill="#000000" fill-rule="nonzero" fill-opacity="1"></path><path clip-path="url(#clip820)" d="M1760.39 1458.35 L1766.59 1458.35 L1766.59 1436.93 L1759.84 1438.28 L1759.84 1434.82 L1766.55 1433.47 L1770.35 1433.47 L1770.35 1458.35 L1776.56 1458.35 L1776.56 1461.55 L1760.39 1461.55 L1760.39 1458.35 Z" fill="#000000" fill-rule="nonzero" fill-opacity="1"></path><path clip-path="url(#clip820)" d="M1158.64 1544.01 Q1157.65 1543.44 1156.48 1543.18 Q1155.33 1542.9 1153.93 1542.9 Q1148.96 1542.9 1146.29 1546.14 Q1143.65 1549.36 1143.65 1555.41 L1143.65 1574.19 L1137.76 1574.19 L1137.76 1538.54 L1143.65 1538.54 L1143.65 1544.08 Q1145.5 1540.83 1148.46 1539.27 Q1151.42 1537.68 1155.65 1537.68 Q1156.25 1537.68 1156.99 1537.77 Q1157.72 1537.84 1158.61 1538 L1158.64 1544.01 Z" fill="#000000" fill-rule="nonzero" fill-opacity="1"></path><path clip-path="url(#clip820)" d="M1164.18 1560.12 L1164.18 1538.54 L1170.03 1538.54 L1170.03 1559.89 Q1170.03 1564.96 1172.01 1567.5 Q1173.98 1570.02 1177.93 1570.02 Q1182.67 1570.02 1185.41 1566.99 Q1188.18 1563.97 1188.18 1558.75 L1188.18 1538.54 L1194.03 1538.54 L1194.03 1574.19 L1188.18 1574.19 L1188.18 1568.71 Q1186.04 1571.96 1183.21 1573.55 Q1180.41 1575.11 1176.69 1575.11 Q1170.54 1575.11 1167.36 1571.29 Q1164.18 1567.47 1164.18 1560.12 M1178.92 1537.68 L1178.92 1537.68 Z" fill="#000000" fill-rule="nonzero" fill-opacity="1"></path><path clip-path="url(#clip820)" d="M1235.73 1552.67 L1235.73 1574.19 L1229.87 1574.19 L1229.87 1552.86 Q1229.87 1547.8 1227.9 1545.29 Q1225.93 1542.77 1221.98 1542.77 Q1217.24 1542.77 1214.5 1545.79 Q1211.76 1548.82 1211.76 1554.04 L1211.76 1574.19 L1205.87 1574.19 L1205.87 1538.54 L1211.76 1538.54 L1211.76 1544.08 Q1213.86 1540.86 1216.7 1539.27 Q1219.56 1537.68 1223.28 1537.68 Q1229.43 1537.68 1232.58 1541.5 Q1235.73 1545.29 1235.73 1552.67 Z" fill="#000000" fill-rule="nonzero" fill-opacity="1"></path><path clip-path="url(#clip820)" d="M1253.2 1528.42 L1253.2 1538.54 L1265.27 1538.54 L1265.27 1543.09 L1253.2 1543.09 L1253.2 1562.44 Q1253.2 1566.8 1254.38 1568.04 Q1255.59 1569.28 1259.25 1569.28 L1265.27 1569.28 L1265.27 1574.19 L1259.25 1574.19 Q1252.47 1574.19 1249.89 1571.67 Q1247.31 1569.12 1247.31 1562.44 L1247.31 1543.09 L1243.02 1543.09 L1243.02 1538.54 L1247.31 1538.54 L1247.31 1528.42 L1253.2 1528.42 Z" fill="#000000" fill-rule="nonzero" fill-opacity="1"></path><path clip-path="url(#clip820)" d="M1272.97 1538.54 L1278.82 1538.54 L1278.82 1574.19 L1272.97 1574.19 L1272.97 1538.54 M1272.97 1524.66 L1278.82 1524.66 L1278.82 1532.08 L1272.97 1532.08 L1272.97 1524.66 Z" fill="#000000" fill-rule="nonzero" fill-opacity="1"></path><path clip-path="url(#clip820)" d="M1318.83 1545.38 Q1321.03 1541.43 1324.09 1539.56 Q1327.14 1537.68 1331.28 1537.68 Q1336.85 1537.68 1339.87 1541.59 Q1342.9 1545.48 1342.9 1552.67 L1342.9 1574.19 L1337.01 1574.19 L1337.01 1552.86 Q1337.01 1547.74 1335.19 1545.25 Q1333.38 1542.77 1329.66 1542.77 Q1325.1 1542.77 1322.46 1545.79 Q1319.82 1548.82 1319.82 1554.04 L1319.82 1574.19 L1313.93 1574.19 L1313.93 1552.86 Q1313.93 1547.7 1312.12 1545.25 Q1310.3 1542.77 1306.52 1542.77 Q1302.03 1542.77 1299.39 1545.83 Q1296.74 1548.85 1296.74 1554.04 L1296.74 1574.19 L1290.86 1574.19 L1290.86 1538.54 L1296.74 1538.54 L1296.74 1544.08 Q1298.75 1540.8 1301.55 1539.24 Q1304.35 1537.68 1308.2 1537.68 Q1312.09 1537.68 1314.79 1539.65 Q1317.53 1541.62 1318.83 1545.38 Z" fill="#000000" fill-rule="nonzero" fill-opacity="1"></path><path clip-path="url(#clip820)" d="M1385.07 1554.9 L1385.07 1557.76 L1358.14 1557.76 Q1358.52 1563.81 1361.77 1566.99 Q1365.05 1570.14 1370.87 1570.14 Q1374.25 1570.14 1377.4 1569.32 Q1380.58 1568.49 1383.7 1566.83 L1383.7 1572.37 Q1380.55 1573.71 1377.24 1574.41 Q1373.93 1575.11 1370.52 1575.11 Q1361.99 1575.11 1357 1570.14 Q1352.03 1565.18 1352.03 1556.71 Q1352.03 1547.96 1356.74 1542.83 Q1361.48 1537.68 1369.5 1537.68 Q1376.7 1537.68 1380.87 1542.33 Q1385.07 1546.94 1385.07 1554.9 M1379.21 1553.18 Q1379.15 1548.37 1376.51 1545.51 Q1373.9 1542.64 1369.57 1542.64 Q1364.67 1542.64 1361.71 1545.41 Q1358.78 1548.18 1358.33 1553.21 L1379.21 1553.18 Z" fill="#000000" fill-rule="nonzero" fill-opacity="1"></path><path clip-path="url(#clip820)" d="M1408.75 1524.72 Q1404.48 1532.04 1402.42 1539.21 Q1400.35 1546.37 1400.35 1553.72 Q1400.35 1561.07 1402.42 1568.3 Q1404.52 1575.49 1408.75 1582.78 L1403.66 1582.78 Q1398.88 1575.3 1396.49 1568.07 Q1394.14 1560.85 1394.14 1553.72 Q1394.14 1546.62 1396.49 1539.43 Q1398.85 1532.24 1403.66 1524.72 L1408.75 1524.72 Z" fill="#000000" fill-rule="nonzero" fill-opacity="1"></path><path clip-path="url(#clip820)" d="M1442.84 1539.59 L1442.84 1545.13 Q1440.35 1543.85 1437.68 1543.22 Q1435.01 1542.58 1432.14 1542.58 Q1427.78 1542.58 1425.59 1543.92 Q1423.42 1545.25 1423.42 1547.93 Q1423.42 1549.96 1424.98 1551.14 Q1426.54 1552.29 1431.25 1553.34 L1433.26 1553.78 Q1439.5 1555.12 1442.11 1557.57 Q1444.75 1559.99 1444.75 1564.35 Q1444.75 1569.32 1440.8 1572.21 Q1436.89 1575.11 1430.01 1575.11 Q1427.15 1575.11 1424.03 1574.54 Q1420.94 1573.99 1417.5 1572.88 L1417.5 1566.83 Q1420.75 1568.52 1423.9 1569.38 Q1427.05 1570.21 1430.14 1570.21 Q1434.28 1570.21 1436.5 1568.81 Q1438.73 1567.37 1438.73 1564.8 Q1438.73 1562.41 1437.11 1561.14 Q1435.52 1559.86 1430.07 1558.68 L1428.04 1558.21 Q1422.59 1557.06 1420.18 1554.71 Q1417.76 1552.32 1417.76 1548.18 Q1417.76 1543.15 1421.32 1540.42 Q1424.89 1537.68 1431.44 1537.68 Q1434.69 1537.68 1437.55 1538.16 Q1440.42 1538.63 1442.84 1539.59 Z" fill="#000000" fill-rule="nonzero" fill-opacity="1"></path><path clip-path="url(#clip820)" d="M1453.15 1524.72 L1458.24 1524.72 Q1463.02 1532.24 1465.37 1539.43 Q1467.76 1546.62 1467.76 1553.72 Q1467.76 1560.85 1465.37 1568.07 Q1463.02 1575.3 1458.24 1582.78 L1453.15 1582.78 Q1457.38 1575.49 1459.45 1568.3 Q1461.55 1561.07 1461.55 1553.72 Q1461.55 1546.37 1459.45 1539.21 Q1457.38 1532.04 1453.15 1524.72 Z" fill="#000000" fill-rule="nonzero" fill-opacity="1"></path><polyline clip-path="url(#clip820)" style="stroke:#000000; stroke-linecap:round; stroke-linejoin:round; stroke-width:4; stroke-opacity:1; fill:none" points="252.764,1410.9 252.764,47.2441 "></polyline>
<polyline clip-path="url(#clip820)" style="stroke:#000000; stroke-linecap:round; stroke-linejoin:round; stroke-width:4; stroke-opacity:1; fill:none" points="252.764,879.659 271.662,879.659 "></polyline>
<polyline clip-path="url(#clip820)" style="stroke:#000000; stroke-linecap:round; stroke-linejoin:round; stroke-width:4; stroke-opacity:1; fill:none" points="252.764,256.817 271.662,256.817 "></polyline>
<path clip-path="url(#clip820)" d="M115.195 899.452 L122.834 899.452 L122.834 873.086 L114.523 874.753 L114.523 870.493 L122.787 868.827 L127.463 868.827 L127.463 899.452 L135.102 899.452 L135.102 903.387 L115.195 903.387 L115.195 899.452 Z" fill="#000000" fill-rule="nonzero" fill-opacity="1"></path><path clip-path="url(#clip820)" d="M154.546 871.905 Q150.935 871.905 149.107 875.47 Q147.301 879.012 147.301 886.141 Q147.301 893.248 149.107 896.813 Q150.935 900.354 154.546 900.354 Q158.181 900.354 159.986 896.813 Q161.815 893.248 161.815 886.141 Q161.815 879.012 159.986 875.47 Q158.181 871.905 154.546 871.905 M154.546 868.202 Q160.357 868.202 163.412 872.808 Q166.491 877.391 166.491 886.141 Q166.491 894.868 163.412 899.475 Q160.357 904.058 154.546 904.058 Q148.736 904.058 145.658 899.475 Q142.602 894.868 142.602 886.141 Q142.602 877.391 145.658 872.808 Q148.736 868.202 154.546 868.202 Z" fill="#000000" fill-rule="nonzero" fill-opacity="1"></path><path clip-path="url(#clip820)" d="M166.491 862.303 L190.602 862.303 L190.602 865.5 L166.491 865.5 L166.491 862.303 Z" fill="#000000" fill-rule="nonzero" fill-opacity="1"></path><path clip-path="url(#clip820)" d="M207.398 860.422 Q204.84 860.422 203.335 862.171 Q201.849 863.921 201.849 866.967 Q201.849 869.995 203.335 871.763 Q204.84 873.512 207.398 873.512 Q209.956 873.512 211.441 871.763 Q212.946 869.995 212.946 866.967 Q212.946 863.921 211.441 862.171 Q209.956 860.422 207.398 860.422 M214.94 848.517 L214.94 851.978 Q213.51 851.3 212.043 850.943 Q210.595 850.586 209.166 850.586 Q205.404 850.586 203.41 853.125 Q201.436 855.664 201.153 860.798 Q202.263 859.162 203.937 858.297 Q205.611 857.413 207.623 857.413 Q211.855 857.413 214.3 859.99 Q216.764 862.548 216.764 866.967 Q216.764 871.293 214.206 873.907 Q211.648 876.522 207.398 876.522 Q202.526 876.522 199.95 872.798 Q197.373 869.055 197.373 861.964 Q197.373 855.307 200.533 851.357 Q203.693 847.388 209.015 847.388 Q210.445 847.388 211.893 847.671 Q213.36 847.953 214.94 848.517 Z" fill="#000000" fill-rule="nonzero" fill-opacity="1"></path><path clip-path="url(#clip820)" d="M114.931 276.609 L122.57 276.609 L122.57 250.244 L114.26 251.91 L114.26 247.651 L122.524 245.984 L127.2 245.984 L127.2 276.609 L134.839 276.609 L134.839 280.544 L114.931 280.544 L114.931 276.609 Z" fill="#000000" fill-rule="nonzero" fill-opacity="1"></path><path clip-path="url(#clip820)" d="M154.283 249.063 Q150.672 249.063 148.843 252.628 Q147.038 256.17 147.038 263.299 Q147.038 270.406 148.843 273.97 Q150.672 277.512 154.283 277.512 Q157.917 277.512 159.723 273.97 Q161.552 270.406 161.552 263.299 Q161.552 256.17 159.723 252.628 Q157.917 249.063 154.283 249.063 M154.283 245.359 Q160.093 245.359 163.149 249.966 Q166.227 254.549 166.227 263.299 Q166.227 272.026 163.149 276.632 Q160.093 281.216 154.283 281.216 Q148.473 281.216 145.394 276.632 Q142.339 272.026 142.339 263.299 Q142.339 254.549 145.394 249.966 Q148.473 245.359 154.283 245.359 Z" fill="#000000" fill-rule="nonzero" fill-opacity="1"></path><path clip-path="url(#clip820)" d="M166.227 239.461 L190.339 239.461 L190.339 242.658 L166.227 242.658 L166.227 239.461 Z" fill="#000000" fill-rule="nonzero" fill-opacity="1"></path><path clip-path="url(#clip820)" d="M208.978 228.364 L199.386 243.354 L208.978 243.354 L208.978 228.364 M207.981 225.054 L212.758 225.054 L212.758 243.354 L216.764 243.354 L216.764 246.514 L212.758 246.514 L212.758 253.134 L208.978 253.134 L208.978 246.514 L196.301 246.514 L196.301 242.846 L207.981 225.054 Z" fill="#000000" fill-rule="nonzero" fill-opacity="1"></path><path clip-path="url(#clip820)" d="M44.7161 773.137 L47.5806 773.137 L47.5806 800.064 Q53.6281 799.682 56.8109 796.435 Q59.9619 793.157 59.9619 787.332 Q59.9619 783.959 59.1344 780.808 Q58.3069 777.625 56.6518 774.506 L62.1899 774.506 Q63.5267 777.657 64.227 780.967 Q64.9272 784.277 64.9272 787.683 Q64.9272 796.213 59.9619 801.21 Q54.9967 806.175 46.5303 806.175 Q37.7774 806.175 32.6531 801.464 Q27.4968 796.722 27.4968 788.701 Q27.4968 781.508 32.1438 777.338 Q36.7589 773.137 44.7161 773.137 M42.9973 778.993 Q38.1912 779.057 35.3266 781.699 Q32.4621 784.309 32.4621 788.637 Q32.4621 793.539 35.2312 796.499 Q38.0002 799.427 43.0292 799.873 L42.9973 778.993 Z" fill="#000000" fill-rule="nonzero" fill-opacity="1"></path><path clip-path="url(#clip820)" d="M33.8307 742.868 Q33.2578 743.855 33.0032 745.032 Q32.7167 746.178 32.7167 747.579 Q32.7167 752.544 35.9632 755.218 Q39.1779 757.859 45.2253 757.859 L64.0042 757.859 L64.0042 763.748 L28.3562 763.748 L28.3562 757.859 L33.8944 757.859 Q30.6479 756.013 29.0883 753.053 Q27.4968 750.093 27.4968 745.86 Q27.4968 745.255 27.5923 744.523 Q27.656 743.791 27.8151 742.9 L33.8307 742.868 Z" fill="#000000" fill-rule="nonzero" fill-opacity="1"></path><path clip-path="url(#clip820)" d="M33.8307 717.214 Q33.2578 718.201 33.0032 719.379 Q32.7167 720.524 32.7167 721.925 Q32.7167 726.89 35.9632 729.564 Q39.1779 732.205 45.2253 732.205 L64.0042 732.205 L64.0042 738.094 L28.3562 738.094 L28.3562 732.205 L33.8944 732.205 Q30.6479 730.359 29.0883 727.399 Q27.4968 724.439 27.4968 720.206 Q27.4968 719.601 27.5923 718.869 Q27.656 718.137 27.8151 717.246 L33.8307 717.214 Z" fill="#000000" fill-rule="nonzero" fill-opacity="1"></path><path clip-path="url(#clip820)" d="M32.4621 698.69 Q32.4621 703.401 36.1542 706.138 Q39.8145 708.875 46.212 708.875 Q52.6095 708.875 56.3017 706.17 Q59.9619 703.432 59.9619 698.69 Q59.9619 694.011 56.2698 691.274 Q52.5777 688.537 46.212 688.537 Q39.8781 688.537 36.186 691.274 Q32.4621 694.011 32.4621 698.69 M27.4968 698.69 Q27.4968 691.051 32.4621 686.691 Q37.4273 682.33 46.212 682.33 Q54.9649 682.33 59.9619 686.691 Q64.9272 691.051 64.9272 698.69 Q64.9272 706.361 59.9619 710.721 Q54.9649 715.05 46.212 715.05 Q37.4273 715.05 32.4621 710.721 Q27.4968 706.361 27.4968 698.69 Z" fill="#000000" fill-rule="nonzero" fill-opacity="1"></path><path clip-path="url(#clip820)" d="M33.8307 651.966 Q33.2578 652.952 33.0032 654.13 Q32.7167 655.276 32.7167 656.676 Q32.7167 661.642 35.9632 664.315 Q39.1779 666.957 45.2253 666.957 L64.0042 666.957 L64.0042 672.845 L28.3562 672.845 L28.3562 666.957 L33.8944 666.957 Q30.6479 665.111 29.0883 662.151 Q27.4968 659.191 27.4968 654.958 Q27.4968 654.353 27.5923 653.621 Q27.656 652.889 27.8151 651.998 L33.8307 651.966 Z" fill="#000000" fill-rule="nonzero" fill-opacity="1"></path><circle clip-path="url(#clip822)" cx="312.198" cy="85.838" r="14.4" fill="#009af9" fill-rule="evenodd" fill-opacity="1" stroke="#000000" stroke-opacity="1" stroke-width="3.2"></circle>
<circle clip-path="url(#clip822)" cx="901.762" cy="249.365" r="14.4" fill="#009af9" fill-rule="evenodd" fill-opacity="1" stroke="#000000" stroke-opacity="1" stroke-width="3.2"></circle>
<circle clip-path="url(#clip822)" cx="963.856" cy="343.138" r="14.4" fill="#009af9" fill-rule="evenodd" fill-opacity="1" stroke="#000000" stroke-opacity="1" stroke-width="3.2"></circle>
<circle clip-path="url(#clip822)" cx="1066.14" cy="456.485" r="14.4" fill="#009af9" fill-rule="evenodd" fill-opacity="1" stroke="#000000" stroke-opacity="1" stroke-width="3.2"></circle>
<circle clip-path="url(#clip822)" cx="1204.18" cy="633.571" r="14.4" fill="#009af9" fill-rule="evenodd" fill-opacity="1" stroke="#000000" stroke-opacity="1" stroke-width="3.2"></circle>
<circle clip-path="url(#clip822)" cx="1382.97" cy="818.595" r="14.4" fill="#009af9" fill-rule="evenodd" fill-opacity="1" stroke="#000000" stroke-opacity="1" stroke-width="3.2"></circle>
<circle clip-path="url(#clip822)" cx="1584.39" cy="928.12" r="14.4" fill="#009af9" fill-rule="evenodd" fill-opacity="1" stroke="#000000" stroke-opacity="1" stroke-width="3.2"></circle>
<circle clip-path="url(#clip822)" cx="1818.67" cy="1054.18" r="14.4" fill="#009af9" fill-rule="evenodd" fill-opacity="1" stroke="#000000" stroke-opacity="1" stroke-width="3.2"></circle>
<circle clip-path="url(#clip822)" cx="2054.13" cy="1210.99" r="14.4" fill="#009af9" fill-rule="evenodd" fill-opacity="1" stroke="#000000" stroke-opacity="1" stroke-width="3.2"></circle>
<circle clip-path="url(#clip822)" cx="2293.32" cy="1372.3" r="14.4" fill="#009af9" fill-rule="evenodd" fill-opacity="1" stroke="#000000" stroke-opacity="1" stroke-width="3.2"></circle>
<path clip-path="url(#clip820)" d="M2020.33 196.379 L2282.76 196.379 L2282.76 92.6992 L2020.33 92.6992  Z" fill="#ffffff" fill-rule="evenodd" fill-opacity="1"></path>
<polyline clip-path="url(#clip820)" style="stroke:#000000; stroke-linecap:round; stroke-linejoin:round; stroke-width:4; stroke-opacity:1; fill:none" points="2020.33,196.379 2282.76,196.379 2282.76,92.6992 2020.33,92.6992 2020.33,196.379 "></polyline>
<circle clip-path="url(#clip820)" cx="2113.66" cy="144.539" r="20.48" fill="#009af9" fill-rule="evenodd" fill-opacity="1" stroke="#000000" stroke-opacity="1" stroke-width="4.55111"></circle>
<path clip-path="url(#clip820)" d="M2220.84 164.227 Q2219.03 168.856 2217.32 170.268 Q2215.6 171.68 2212.73 171.68 L2209.33 171.68 L2209.33 168.115 L2211.83 168.115 Q2213.59 168.115 2214.56 167.282 Q2215.53 166.449 2216.71 163.347 L2217.48 161.403 L2206.99 135.893 L2211.51 135.893 L2219.61 156.171 L2227.71 135.893 L2232.22 135.893 L2220.84 164.227 Z" fill="#000000" fill-rule="nonzero" fill-opacity="1"></path><path clip-path="url(#clip820)" d="M2239.52 157.884 L2247.15 157.884 L2247.15 131.518 L2238.84 133.185 L2238.84 128.926 L2247.11 127.259 L2251.78 127.259 L2251.78 157.884 L2259.42 157.884 L2259.42 161.819 L2239.52 161.819 L2239.52 157.884 Z" fill="#000000" fill-rule="nonzero" fill-opacity="1"></path></svg>